<svg id="svg" version="1.1" xmlns="http://www.w3.org/2000/svg" xmlns:xlink="http://www.w3.org/1999/xlink" width="400" height="300.1733102253033" viewBox="0, 0, 400,300.1733102253033"><g id="svgg"><path id="path0" d="M193.093 20.296 C 192.073 20.713,192.099 20.720,193.994 20.517 C 196.398 20.259,205.157 20.267,207.808 20.530 L 209.760 20.723 208.258 20.285 C 206.144 19.667,194.607 19.676,193.093 20.296 M187.688 21.021 C 187.688 21.367,188.409 21.367,189.489 21.021 C 190.127 20.817,190.048 20.776,188.964 20.751 C 188.262 20.734,187.688 20.856,187.688 21.021 M212.312 21.021 C 213.393 21.367,214.114 21.367,214.114 21.021 C 214.114 20.856,213.540 20.734,212.838 20.751 C 211.754 20.776,211.675 20.817,212.312 21.021 M184.084 21.622 C 184.084 21.787,183.627 21.922,183.067 21.922 C 182.508 21.922,181.664 22.124,181.190 22.371 C 180.474 22.744,180.434 22.819,180.946 22.821 C 181.285 22.822,181.690 22.702,181.847 22.553 C 182.004 22.405,182.673 22.209,183.333 22.118 C 183.994 22.026,185.143 21.827,185.886 21.674 L 187.237 21.396 185.661 21.359 C 184.785 21.338,184.084 21.455,184.084 21.622 M216.066 21.635 C 218.319 22.081,220.569 22.503,221.622 22.675 L 222.673 22.847 221.662 22.385 C 221.106 22.130,220.127 21.922,219.485 21.922 C 218.843 21.922,218.318 21.787,218.318 21.622 C 218.318 21.452,217.568 21.338,216.592 21.359 C 214.896 21.396,214.887 21.401,216.066 21.635 M195.345 22.090 C 192.557 22.351,188.343 22.883,187.087 23.133 C 184.206 23.706,181.192 24.383,180.330 24.651 C 176.499 25.839,173.700 26.776,172.816 27.166 C 172.242 27.420,171.265 27.848,170.646 28.117 C 144.299 39.554,125.870 66.618,122.208 99.249 C 121.789 102.985,121.974 129.743,122.499 141.291 C 123.445 162.100,123.773 169.153,124.012 173.874 C 124.371 180.940,125.477 208.221,125.724 216.066 C 125.833 219.535,126.002 222.063,126.099 221.685 C 126.444 220.347,125.221 187.897,123.755 159.459 C 123.589 156.239,123.310 149.820,123.135 145.195 C 122.960 140.571,122.681 133.544,122.516 129.580 C 121.757 111.354,122.286 97.704,124.059 89.790 C 125.653 82.671,127.175 77.711,129.448 72.222 C 137.732 52.222,153.005 36.097,170.946 28.410 C 171.565 28.145,172.511 27.739,173.048 27.508 C 176.100 26.196,182.266 24.488,187.688 23.453 C 197.763 21.529,210.485 22.175,223.423 25.266 C 226.169 25.922,226.330 25.968,230.631 27.368 C 248.267 33.108,263.468 45.438,270.816 59.964 C 273.413 65.097,274.537 67.527,275.517 70.120 C 276.141 71.772,276.757 73.393,276.887 73.724 C 277.425 75.094,278.761 79.536,279.281 81.682 C 279.421 82.260,279.884 84.152,280.309 85.886 C 280.734 87.620,281.210 89.850,281.367 90.841 C 281.524 91.832,281.866 93.994,282.128 95.646 C 283.196 102.385,283.803 109.128,283.295 108.621 C 283.192 108.517,283.006 107.920,282.882 107.294 C 280.255 93.981,276.506 80.285,273.199 71.922 C 259.248 36.637,221.615 19.305,181.832 29.843 C 173.653 32.009,170.316 33.503,172.457 34.041 C 172.851 34.140,173.775 34.750,174.510 35.397 C 180.970 41.084,177.863 52.353,167.167 62.029 C 158.761 69.632,146.124 70.726,141.369 64.260 C 140.246 62.734,140.348 62.709,138.051 65.052 C 135.116 68.045,131.919 74.112,130.470 79.438 C 127.187 91.505,125.969 101.090,125.186 121.021 C 124.718 132.929,125.131 157.350,126.114 175.826 C 126.281 178.964,126.622 185.450,126.873 190.240 C 127.311 198.638,127.577 203.014,128.212 212.312 C 128.376 214.707,128.604 218.219,128.719 220.116 C 128.946 223.873,129.149 224.324,130.609 224.324 C 131.116 224.324,131.532 224.459,131.532 224.625 C 131.532 224.790,131.853 224.925,132.246 224.925 C 132.638 224.925,133.128 225.128,133.333 225.375 C 133.539 225.623,133.953 225.826,134.253 225.826 C 134.554 225.826,134.883 225.961,134.985 226.126 C 135.087 226.291,135.560 226.426,136.036 226.426 C 136.512 226.426,136.985 226.562,137.087 226.727 C 137.189 226.892,137.950 227.027,138.778 227.027 C 139.715 227.027,140.453 227.197,140.734 227.477 C 140.998 227.742,141.732 227.928,142.514 227.928 C 143.245 227.928,143.844 228.063,143.844 228.228 C 143.844 228.393,144.241 228.529,144.727 228.529 C 145.213 228.529,145.694 228.664,145.796 228.829 C 145.900 228.998,147.342 229.129,149.092 229.129 C 151.043 229.129,152.242 229.249,152.310 229.452 C 152.369 229.629,153.225 229.847,154.212 229.936 C 155.199 230.024,156.134 230.217,156.291 230.364 C 156.448 230.510,157.420 230.631,158.451 230.631 C 159.482 230.631,160.408 230.766,160.511 230.931 C 160.613 231.096,161.373 231.231,162.201 231.231 C 163.139 231.231,163.876 231.401,164.157 231.682 C 164.434 231.959,165.170 232.132,166.070 232.132 C 166.874 232.132,167.616 232.267,167.718 232.432 C 168.016 232.914,169.965 232.795,170.162 232.282 C 170.257 232.035,170.576 231.832,170.871 231.832 C 171.166 231.832,171.485 232.035,171.580 232.282 C 171.709 232.618,172.246 232.733,173.697 232.733 C 174.766 232.733,175.724 232.868,175.826 233.033 C 175.944 233.224,179.877 233.333,186.637 233.333 C 193.396 233.333,197.329 233.443,197.447 233.634 C 197.561 233.817,199.941 233.934,203.585 233.934 C 208.508 233.934,209.601 234.012,209.910 234.384 C 210.469 235.058,228.262 235.058,228.936 234.384 C 229.281 234.040,230.185 233.929,232.786 233.914 L 236.186 233.894 238.799 228.584 C 242.325 221.417,251.177 204.301,256.300 194.745 C 257.983 191.607,260.077 187.688,260.954 186.036 C 263.486 181.268,263.933 180.450,271.894 165.986 C 275.008 160.329,275.539 159.526,276.001 159.773 C 276.810 160.206,280.337 164.708,282.062 167.510 C 282.907 168.882,283.696 170.066,283.815 170.140 C 284.325 170.454,284.483 164.332,284.508 143.393 C 284.543 114.326,284.134 105.243,282.292 94.069 C 282.121 93.037,281.854 91.415,281.699 90.465 C 279.892 79.459,274.213 63.861,269.627 57.311 C 269.320 56.873,269.069 56.420,269.069 56.306 C 269.069 55.483,262.937 47.698,259.727 44.444 C 256.476 41.150,250.422 36.314,247.333 34.544 C 244.006 32.638,242.519 31.838,240.390 30.810 C 239.069 30.172,237.718 29.547,237.387 29.421 C 237.057 29.294,236.111 28.918,235.285 28.585 C 228.848 25.987,221.705 24.195,211.111 22.520 C 209.114 22.204,197.510 21.887,195.345 22.090 M178.679 23.123 C 178.679 23.499,178.997 23.499,179.580 23.123 C 179.944 22.888,179.901 22.831,179.354 22.827 C 178.983 22.825,178.679 22.958,178.679 23.123 M223.423 23.123 C 224.015 23.505,224.711 23.505,224.474 23.123 C 224.372 22.958,223.993 22.825,223.631 22.827 C 223.096 22.831,223.057 22.886,223.423 23.123 M176.426 23.724 C 176.324 23.889,175.994 24.024,175.692 24.024 C 175.391 24.024,174.757 24.226,174.284 24.473 C 173.515 24.873,173.494 24.921,174.081 24.923 C 174.443 24.924,174.823 24.790,174.925 24.625 C 175.027 24.459,175.413 24.324,175.783 24.324 C 176.154 24.324,176.585 24.202,176.742 24.053 C 176.899 23.904,177.297 23.717,177.628 23.638 C 178.091 23.526,178.043 23.485,177.420 23.458 C 176.976 23.439,176.529 23.559,176.426 23.724 M226.276 23.883 C 226.937 24.121,227.774 24.317,228.135 24.320 C 228.497 24.322,228.877 24.459,228.979 24.625 C 229.081 24.790,229.461 24.924,229.823 24.923 C 230.410 24.921,230.388 24.873,229.620 24.473 C 229.147 24.226,228.370 24.024,227.894 24.024 C 227.417 24.024,227.027 23.889,227.027 23.724 C 227.027 23.559,226.588 23.429,226.051 23.437 L 225.075 23.450 226.276 23.883 M168.544 26.670 C 168.007 26.926,167.568 27.247,167.568 27.384 C 167.568 27.521,167.804 27.509,168.093 27.357 C 168.382 27.205,169.092 26.870,169.670 26.611 C 170.320 26.320,170.491 26.152,170.120 26.172 C 169.790 26.190,169.080 26.414,168.544 26.670 M234.644 26.578 C 235.117 26.825,235.732 27.027,236.010 27.027 C 236.289 27.027,236.679 27.189,236.877 27.387 C 237.157 27.668,237.237 27.666,237.237 27.380 C 237.237 27.178,236.832 26.931,236.336 26.832 C 235.841 26.733,235.435 26.533,235.435 26.389 C 235.435 26.244,235.064 26.127,234.610 26.128 L 233.784 26.130 234.644 26.578 M166.366 27.928 C 166.366 28.093,166.171 28.228,165.933 28.228 C 165.434 28.228,163.278 29.444,163.457 29.624 C 163.564 29.731,166.923 28.072,167.239 27.756 C 167.310 27.685,167.142 27.628,166.867 27.628 C 166.592 27.628,166.366 27.763,166.366 27.928 M239.039 28.321 C 241.475 29.515,242.042 29.724,242.042 29.429 C 242.042 29.270,241.704 29.056,241.291 28.952 C 240.878 28.849,240.541 28.643,240.541 28.496 C 240.541 28.349,240.211 28.228,239.808 28.228 C 239.404 28.228,238.991 28.093,238.889 27.928 C 238.787 27.763,238.475 27.635,238.195 27.643 C 237.916 27.652,238.296 27.957,239.039 28.321 M242.643 29.874 C 242.643 29.953,243.179 30.291,243.834 30.626 C 244.489 30.960,246.246 31.966,247.738 32.861 C 249.230 33.756,250.450 34.394,250.450 34.280 C 250.450 34.165,249.977 33.816,249.399 33.504 C 248.821 33.193,248.348 32.825,248.348 32.685 C 248.348 32.546,248.078 32.432,247.748 32.432 C 247.417 32.432,247.147 32.313,247.147 32.167 C 247.147 32.021,246.911 31.813,246.622 31.704 C 245.635 31.331,244.745 30.789,244.745 30.559 C 244.745 30.433,244.482 30.330,244.162 30.330 C 243.841 30.330,243.495 30.195,243.393 30.030 C 243.205 29.726,242.643 29.609,242.643 29.874 M161.261 30.631 C 161.261 30.796,161.075 30.931,160.848 30.931 C 160.620 30.931,160.266 31.134,160.060 31.381 C 159.508 32.046,159.947 31.930,161.197 31.081 C 161.913 30.594,162.119 30.330,161.781 30.330 C 161.495 30.330,161.261 30.465,161.261 30.631 M158.725 32.242 C 158.404 32.430,157.872 32.819,157.542 33.108 C 157.213 33.397,156.855 33.634,156.746 33.634 C 156.637 33.634,156.255 33.888,155.896 34.200 C 155.536 34.511,154.773 35.086,154.200 35.476 C 153.626 35.867,153.156 36.299,153.155 36.436 C 153.154 36.574,153.525 36.400,153.979 36.050 C 155.700 34.724,158.917 32.463,159.256 32.341 C 159.451 32.271,159.542 32.144,159.459 32.058 C 159.377 31.972,159.046 32.055,158.725 32.242 M250.751 34.664 C 250.751 34.736,251.156 35.083,251.652 35.435 C 252.168 35.803,252.553 35.928,252.553 35.728 C 252.553 35.536,252.282 35.309,251.952 35.222 C 251.622 35.136,251.351 34.946,251.351 34.800 C 251.351 34.654,251.216 34.535,251.051 34.535 C 250.886 34.535,250.751 34.593,250.751 34.664 M152.074 37.162 C 151.748 37.451,150.540 38.514,149.389 39.524 C 146.611 41.962,145.281 43.291,142.943 45.965 C 141.869 47.193,140.890 48.243,140.766 48.298 C 140.642 48.353,140.541 48.521,140.541 48.671 C 140.541 48.921,139.753 49.946,138.814 50.919 C 138.607 51.133,138.438 51.453,138.438 51.630 C 138.438 51.807,138.303 51.952,138.138 51.952 C 137.973 51.952,137.842 52.121,137.848 52.327 C 137.857 52.661,138.191 52.326,139.431 50.742 C 143.125 46.021,146.697 42.219,151.057 38.373 C 152.127 37.428,152.927 36.651,152.834 36.646 C 152.742 36.641,152.399 36.873,152.074 37.162 M253.754 36.737 C 253.754 36.791,254.328 37.281,255.030 37.824 L 256.306 38.811 255.200 37.724 C 254.211 36.752,253.754 36.439,253.754 36.737 M258.758 41.031 C 259.776 42.000,261.442 43.671,262.460 44.745 C 263.478 45.818,264.040 46.291,263.709 45.796 C 263.057 44.820,258.487 40.300,257.508 39.661 C 257.177 39.446,257.740 40.062,258.758 41.031 M264.430 47.077 C 264.604 47.198,265.145 47.835,265.631 48.493 C 267.693 51.277,268.447 52.140,268.458 51.727 C 268.464 51.520,268.333 51.351,268.168 51.351 C 268.003 51.351,267.868 51.160,267.868 50.926 C 267.868 50.692,267.761 50.455,267.630 50.400 C 267.499 50.345,266.993 49.762,266.504 49.105 C 265.117 47.239,264.755 46.847,264.423 46.851 C 264.218 46.854,264.221 46.930,264.430 47.077 M136.529 54.078 C 136.057 54.745,135.742 55.362,135.829 55.449 C 135.916 55.536,136.154 55.291,136.357 54.906 C 136.560 54.520,136.808 54.137,136.907 54.054 C 137.382 53.658,137.882 52.854,137.649 52.859 C 137.505 52.863,137.001 53.411,136.529 54.078 M270.029 54.658 C 270.544 55.485,271.020 56.107,271.089 56.038 C 271.233 55.894,270.591 54.713,270.045 54.119 C 269.839 53.895,269.670 53.585,269.670 53.432 C 269.670 53.279,269.540 53.153,269.382 53.153 C 269.223 53.153,269.515 53.830,270.029 54.658 M271.819 57.520 C 272.164 58.105,272.512 58.519,272.593 58.439 C 272.735 58.296,271.546 56.456,271.311 56.456 C 271.245 56.456,271.474 56.935,271.819 57.520 M134.676 56.998 C 134.357 57.227,133.634 58.436,133.634 58.741 C 133.634 58.846,133.836 58.764,134.084 58.559 C 134.332 58.353,134.535 58.010,134.535 57.796 C 134.535 57.582,134.703 57.347,134.910 57.273 C 135.116 57.200,135.214 57.061,135.126 56.964 C 135.039 56.868,134.836 56.883,134.676 56.998 M180.644 58.402 C 183.581 61.516,184.358 85.161,181.707 90.737 C 179.754 94.843,175.677 94.234,174.334 89.637 C 173.277 86.022,173.229 65.157,174.269 61.655 C 175.545 57.358,178.322 55.940,180.644 58.402 M226.608 57.905 C 228.994 59.900,229.554 63.919,229.354 77.599 C 229.159 90.831,228.132 93.798,223.923 93.284 C 220.581 92.876,219.756 89.279,219.784 75.225 C 219.803 65.754,219.869 64.890,220.942 60.115 C 221.456 57.831,224.908 56.484,226.608 57.905 M177.119 59.384 C 176.871 59.673,176.565 60.113,176.439 60.360 C 176.313 60.608,176.529 60.447,176.919 60.002 C 177.309 59.558,177.965 59.137,178.378 59.067 L 179.129 58.941 178.350 58.900 C 177.921 58.877,177.367 59.095,177.119 59.384 M223.299 59.431 C 222.218 60.625,221.537 64.841,222.168 66.430 C 222.281 66.713,222.372 65.767,222.372 64.328 C 222.372 60.946,223.040 59.404,224.625 59.124 L 225.676 58.938 224.746 58.898 C 224.174 58.874,223.618 59.079,223.299 59.431 M132.541 60.415 C 131.936 61.365,130.942 63.474,131.049 63.582 C 131.114 63.646,131.586 62.925,132.099 61.979 C 132.911 60.478,133.239 59.321,132.541 60.415 M273.323 60.294 C 273.378 60.423,273.979 61.673,274.659 63.072 C 275.955 65.740,276.672 67.302,277.152 68.501 C 277.431 69.199,277.440 69.201,277.458 68.561 C 277.469 68.199,277.342 67.820,277.177 67.718 C 277.012 67.616,276.877 67.214,276.877 66.824 C 276.877 66.435,276.776 66.071,276.652 66.016 C 276.325 65.871,275.375 63.990,275.375 63.489 C 275.375 63.255,275.240 63.063,275.075 63.063 C 274.910 63.063,274.775 62.868,274.775 62.630 C 274.775 62.174,273.618 60.060,273.369 60.060 C 273.289 60.060,273.268 60.165,273.323 60.294 M175.826 61.862 C 175.712 62.381,175.681 62.868,175.758 62.945 C 175.834 63.021,175.983 62.652,176.089 62.125 C 176.339 60.873,176.096 60.630,175.826 61.862 M226.752 61.562 C 226.762 61.809,226.885 62.282,227.027 62.613 L 227.285 63.213 227.302 62.613 C 227.311 62.282,227.187 61.809,227.027 61.562 C 226.768 61.161,226.738 61.161,226.752 61.562 M175.457 64.565 C 175.457 65.308,175.516 65.612,175.587 65.240 C 175.659 64.869,175.659 64.261,175.587 63.889 C 175.516 63.517,175.457 63.821,175.457 64.565 M130.259 64.810 C 130.061 65.335,129.793 65.766,129.664 65.766 C 129.535 65.766,129.429 66.025,129.429 66.341 C 129.429 66.658,129.274 66.969,129.084 67.032 C 128.894 67.095,128.804 67.343,128.884 67.583 C 128.969 67.837,129.421 67.216,129.974 66.084 C 130.493 65.021,130.851 64.084,130.769 64.002 C 130.687 63.920,130.458 64.284,130.259 64.810 M227.417 65.766 C 227.417 66.674,227.474 67.046,227.542 66.592 C 227.611 66.137,227.611 65.394,227.542 64.940 C 227.474 64.486,227.417 64.857,227.417 65.766 M181.157 65.616 C 181.160 66.276,181.222 66.511,181.293 66.138 C 181.365 65.764,181.363 65.224,181.287 64.936 C 181.212 64.649,181.153 64.955,181.157 65.616 M180.781 67.344 C 180.781 68.687,178.222 70.331,177.628 69.369 C 177.526 69.204,177.289 69.069,177.102 69.069 C 176.915 69.069,177.024 69.267,177.345 69.510 C 178.701 70.536,182.118 68.204,180.958 67.044 C 180.861 66.947,180.781 67.082,180.781 67.344 M226.616 68.544 L 226.076 69.520 226.695 68.769 C 227.244 68.103,227.488 67.568,227.242 67.568 C 227.195 67.568,226.913 68.007,226.616 68.544 M127.853 69.626 C 127.044 71.382,127.233 71.813,128.079 70.144 C 128.911 68.506,128.923 68.465,128.604 68.476 C 128.480 68.480,128.142 68.998,127.853 69.626 M224.104 69.513 C 224.681 69.847,225.090 69.907,225.443 69.710 C 225.870 69.471,225.832 69.428,225.213 69.446 C 224.807 69.457,224.204 69.368,223.874 69.249 C 223.544 69.129,223.647 69.248,224.104 69.513 M278.089 70.681 C 278.062 71.325,279.441 74.822,279.533 74.345 C 279.589 74.051,279.488 73.662,279.307 73.482 C 279.127 73.301,278.974 72.876,278.968 72.538 C 278.958 71.943,278.110 70.153,278.089 70.681 M125.601 75.243 C 125.394 75.467,125.225 76.050,125.225 76.539 C 125.225 77.028,125.077 77.477,124.895 77.537 C 124.714 77.598,124.613 77.981,124.670 78.388 C 124.757 79.001,124.846 78.895,125.184 77.778 C 125.410 77.035,125.736 76.123,125.911 75.751 C 126.289 74.945,126.124 74.675,125.601 75.243 M280.180 77.592 C 280.180 77.840,280.315 78.126,280.480 78.228 C 280.646 78.330,280.781 78.784,280.781 79.237 C 280.781 79.690,280.904 80.188,281.056 80.345 C 281.207 80.502,281.391 80.968,281.465 81.381 C 281.563 81.928,281.611 81.826,281.641 81.006 C 281.663 80.387,281.564 79.880,281.420 79.880 C 281.276 79.880,281.073 79.347,280.969 78.696 C 280.784 77.541,280.180 76.696,280.180 77.592 M123.495 81.613 C 123.291 82.047,123.123 82.848,123.123 83.393 C 123.123 83.938,122.988 84.384,122.823 84.384 C 122.658 84.384,122.533 84.891,122.546 85.511 C 122.559 86.130,122.610 86.502,122.660 86.336 C 122.709 86.171,122.890 85.495,123.062 84.835 C 123.233 84.174,123.542 83.059,123.748 82.356 C 124.180 80.879,124.038 80.463,123.495 81.613 M281.703 82.808 C 281.785 83.688,282.241 84.179,282.261 83.408 C 282.273 82.954,282.147 82.583,281.982 82.583 C 281.817 82.583,281.691 82.684,281.703 82.808 M282.287 85.493 C 282.284 85.855,282.417 86.234,282.583 86.336 C 282.965 86.573,282.965 85.877,282.583 85.285 C 282.346 84.919,282.291 84.958,282.287 85.493 M283.049 87.838 C 283.262 90.085,283.773 93.540,284.048 94.595 L 284.323 95.646 284.354 94.387 C 284.371 93.695,284.249 93.045,284.084 92.943 C 283.919 92.841,283.784 91.914,283.784 90.883 C 283.784 89.852,283.659 88.881,283.507 88.724 C 283.354 88.567,283.163 88.033,283.082 87.538 C 283.001 87.042,282.986 87.177,283.049 87.838 M121.922 87.705 C 121.922 88.045,122.057 88.240,122.222 88.138 C 122.387 88.036,122.523 87.758,122.523 87.520 C 122.523 87.282,122.387 87.087,122.222 87.087 C 122.057 87.087,121.922 87.365,121.922 87.705 M121.478 90.378 C 121.056 91.693,120.666 94.684,120.577 97.297 C 120.493 99.771,120.498 99.790,120.716 97.898 C 121.209 93.631,121.365 92.600,121.674 91.551 C 122.040 90.307,121.856 89.202,121.478 90.378 M284.389 97.372 C 284.399 98.230,284.976 98.668,284.980 97.823 C 284.983 97.369,284.850 96.997,284.685 96.997 C 284.520 96.997,284.386 97.166,284.389 97.372 M285.206 102.102 C 285.283 103.506,285.445 105.668,285.566 106.907 L 285.786 109.159 285.836 105.931 C 285.865 104.057,285.766 102.703,285.601 102.703 C 285.444 102.703,285.259 101.993,285.190 101.126 C 285.122 100.259,285.129 100.698,285.206 102.102 M119.631 100.933 C 119.735 101.452,119.820 102.896,119.820 104.142 C 119.820 107.165,120.001 106.806,120.259 103.270 C 120.447 100.705,120.413 100.362,119.956 100.186 C 119.517 100.018,119.470 100.127,119.631 100.933 M207.729 101.054 C 223.287 104.005,230.492 115.446,222.464 124.453 C 212.971 135.105,189.404 135.547,179.064 125.269 C 169.968 116.227,176.151 104.977,192.319 101.153 C 196.163 100.244,203.219 100.199,207.729 101.054 M285.903 111.319 C 285.938 114.242,286.414 115.443,286.452 112.705 C 286.471 111.350,286.352 110.162,286.186 110.060 C 286.001 109.946,285.893 110.428,285.903 111.319 M119.889 115.015 C 119.889 115.593,119.951 115.830,120.027 115.541 C 120.102 115.252,120.102 114.779,120.027 114.489 C 119.951 114.200,119.889 114.437,119.889 115.015 M120.209 125.075 C 120.203 126.892,120.291 130.405,120.406 132.883 L 120.614 137.387 120.631 132.733 C 120.640 130.173,120.551 126.659,120.434 124.925 L 120.221 121.772 120.209 125.075 M286.572 141.291 C 286.586 151.697,286.676 159.129,286.773 157.808 C 286.899 156.093,287.002 155.663,287.134 156.306 C 287.235 156.802,287.261 149.842,287.192 140.841 C 287.122 131.839,286.949 124.002,286.807 123.423 C 286.654 122.804,286.558 130.140,286.572 141.291 M120.554 141.226 C 120.455 141.485,120.451 142.822,120.547 144.197 C 120.642 145.572,120.852 150.210,121.014 154.505 C 121.176 158.799,121.432 163.056,121.584 163.964 C 121.909 165.911,121.902 165.513,121.352 150.468 C 121.015 141.261,120.928 140.253,120.554 141.226 M286.111 173.543 C 285.781 176.358,285.819 178.265,286.198 177.886 C 286.384 177.700,286.475 176.374,286.423 174.598 L 286.336 171.622 286.111 173.543 M121.927 175.000 C 121.924 176.032,121.912 176.975,121.899 177.095 C 121.887 177.214,122.022 177.361,122.200 177.420 C 122.611 177.557,122.630 174.205,122.222 173.574 C 122.017 173.256,121.930 173.677,121.927 175.000 M285.508 185.258 C 285.383 188.959,285.350 192.056,285.433 192.140 C 285.834 192.541,285.892 191.501,285.817 185.254 L 285.736 178.529 285.508 185.258 M122.542 194.332 C 122.531 196.747,122.435 199.160,122.329 199.693 C 122.161 200.534,122.210 200.646,122.704 200.548 C 123.238 200.441,123.267 200.150,123.178 195.835 C 123.052 189.687,122.567 188.542,122.542 194.332 M122.523 202.252 C 122.523 202.500,122.658 202.703,122.823 202.703 C 123.011 202.703,123.123 204.505,123.123 207.508 C 123.123 210.511,123.011 212.312,122.823 212.312 C 122.658 212.312,122.523 212.515,122.523 212.763 C 122.523 213.342,122.945 213.339,123.428 212.757 C 123.800 212.309,123.618 203.259,123.216 202.211 C 123.005 201.661,122.523 201.690,122.523 202.252 M330.738 203.754 C 330.986 204.002,331.359 204.204,331.567 204.204 C 331.780 204.204,331.691 204.011,331.364 203.763 C 330.599 203.185,330.162 203.178,330.738 203.754 M283.784 213.664 C 283.784 214.077,283.919 214.414,284.084 214.414 C 284.249 214.414,284.384 214.077,284.384 213.664 C 284.384 213.251,284.249 212.913,284.084 212.913 C 283.919 212.913,283.784 213.251,283.784 213.664 " stroke="none" fill="#8b5434" fill-rule="evenodd"></path><path id="path1" d="M198.348 20.709 C 198.018 20.858,196.255 20.988,194.429 21.000 C 192.604 21.012,190.983 21.148,190.826 21.304 C 190.669 21.460,189.730 21.615,188.739 21.648 C 187.748 21.682,186.572 21.893,186.126 22.116 C 185.680 22.340,184.776 22.523,184.117 22.523 C 183.458 22.523,182.835 22.658,182.733 22.823 C 182.631 22.988,182.090 23.123,181.532 23.123 C 180.973 23.123,180.432 23.258,180.330 23.423 C 180.228 23.589,179.773 23.724,179.319 23.724 C 178.865 23.724,178.231 23.922,177.910 24.165 C 177.590 24.407,176.964 24.610,176.519 24.615 C 176.075 24.620,175.628 24.760,175.526 24.925 C 175.423 25.090,174.942 25.225,174.457 25.225 C 173.971 25.225,173.574 25.360,173.574 25.526 C 173.574 25.691,173.236 25.826,172.823 25.826 C 172.410 25.826,172.072 25.961,172.072 26.126 C 172.072 26.291,171.924 26.426,171.742 26.426 C 171.420 26.426,169.739 27.103,168.698 27.653 C 168.411 27.804,167.972 27.928,167.722 27.928 C 167.472 27.928,167.267 28.060,167.267 28.223 C 167.267 28.385,166.929 28.602,166.517 28.706 C 166.104 28.809,165.766 29.014,165.766 29.162 C 165.766 29.309,165.495 29.429,165.165 29.429 C 164.835 29.429,164.565 29.565,164.565 29.730 C 164.565 29.895,164.294 30.030,163.964 30.030 C 163.634 30.030,163.363 30.151,163.363 30.298 C 163.363 30.445,163.026 30.650,162.613 30.754 C 162.200 30.858,161.862 31.075,161.862 31.237 C 161.862 31.399,161.659 31.532,161.411 31.532 C 161.164 31.532,160.961 31.667,160.961 31.832 C 160.961 31.997,160.740 32.132,160.470 32.132 C 160.200 32.132,159.666 32.470,159.283 32.883 C 158.900 33.296,158.351 33.634,158.062 33.634 C 157.678 33.634,157.627 33.723,157.871 33.967 C 158.115 34.211,158.567 34.051,159.562 33.366 C 160.308 32.853,161.064 32.432,161.240 32.432 C 161.417 32.432,161.562 32.301,161.562 32.140 C 161.562 31.979,162.136 31.566,162.838 31.223 C 163.540 30.880,164.655 30.319,165.315 29.976 C 167.764 28.705,168.836 28.228,169.248 28.228 C 169.480 28.228,169.670 28.123,169.670 27.994 C 169.670 27.309,179.238 24.104,183.185 23.468 C 183.928 23.348,184.739 23.124,184.986 22.970 C 186.226 22.198,196.910 21.247,202.368 21.423 C 208.772 21.629,216.570 22.447,217.469 23.007 C 217.689 23.144,218.544 23.351,219.369 23.469 C 221.062 23.709,222.191 23.930,223.724 24.320 C 224.302 24.467,225.450 24.749,226.276 24.948 C 227.102 25.147,228.183 25.476,228.679 25.679 C 229.174 25.882,230.188 26.218,230.931 26.426 C 233.078 27.027,234.841 27.695,235.013 27.972 C 235.099 28.113,235.473 28.228,235.844 28.228 C 236.214 28.228,236.645 28.340,236.802 28.476 C 236.959 28.613,237.663 28.905,238.368 29.126 C 239.072 29.347,239.798 29.709,239.981 29.929 C 240.164 30.150,240.568 30.330,240.878 30.330 C 241.188 30.330,241.441 30.465,241.441 30.631 C 241.441 30.796,241.678 30.941,241.967 30.953 C 242.256 30.965,242.898 31.231,243.393 31.544 C 243.889 31.857,244.700 32.320,245.195 32.572 C 245.691 32.825,246.502 33.304,246.997 33.637 C 247.492 33.969,248.134 34.323,248.423 34.423 C 248.712 34.523,248.949 34.724,248.949 34.870 C 248.949 35.016,249.152 35.135,249.399 35.135 C 249.647 35.135,249.850 35.270,249.850 35.435 C 249.850 35.601,250.020 35.736,250.228 35.736 C 250.436 35.736,250.979 36.081,251.433 36.502 C 251.888 36.923,252.393 37.186,252.556 37.085 C 253.061 36.773,252.884 36.336,252.252 36.336 C 251.922 36.336,251.652 36.201,251.652 36.036 C 251.652 35.871,251.449 35.736,251.201 35.736 C 250.953 35.736,250.751 35.533,250.751 35.285 C 250.751 35.035,250.484 34.835,250.150 34.835 C 249.820 34.835,249.550 34.700,249.550 34.535 C 249.550 34.369,249.347 34.234,249.099 34.234 C 248.851 34.234,248.649 34.099,248.649 33.934 C 248.649 33.769,248.393 33.634,248.080 33.634 C 247.768 33.634,247.434 33.431,247.339 33.183 C 247.244 32.935,246.891 32.733,246.556 32.733 C 246.220 32.733,245.946 32.598,245.946 32.432 C 245.946 32.267,245.743 32.132,245.495 32.132 C 245.248 32.132,245.045 31.997,245.045 31.832 C 245.045 31.667,244.786 31.532,244.469 31.532 C 244.153 31.532,243.849 31.430,243.794 31.306 C 243.657 31.000,240.483 29.419,240.015 29.425 C 239.809 29.427,239.640 29.294,239.640 29.129 C 239.640 28.964,239.395 28.829,239.096 28.829 C 238.798 28.829,238.291 28.630,237.970 28.388 C 237.650 28.145,237.083 27.943,236.712 27.937 C 236.340 27.932,236.036 27.793,236.036 27.628 C 236.036 27.462,235.764 27.327,235.431 27.327 C 234.825 27.327,234.640 27.257,232.783 26.327 C 232.233 26.051,231.532 25.826,231.225 25.826 C 230.917 25.826,230.583 25.691,230.480 25.526 C 230.378 25.360,229.838 25.225,229.279 25.225 C 228.721 25.225,228.180 25.090,228.078 24.925 C 227.976 24.760,227.521 24.625,227.067 24.625 C 226.613 24.625,225.979 24.426,225.658 24.184 C 225.337 23.941,224.501 23.739,223.799 23.733 C 223.097 23.728,222.523 23.589,222.523 23.423 C 222.523 23.258,221.980 23.123,221.317 23.123 C 220.654 23.123,219.877 23.002,219.591 22.855 C 218.808 22.452,216.031 21.931,213.667 21.743 C 212.513 21.652,211.432 21.470,211.265 21.340 C 211.098 21.209,208.641 21.016,205.805 20.909 C 202.969 20.803,200.267 20.653,199.799 20.578 C 199.332 20.502,198.679 20.561,198.348 20.709 M156.575 34.621 C 155.888 35.372,154.639 36.336,154.352 36.336 C 154.188 36.336,154.053 36.438,154.052 36.562 C 154.051 36.685,153.558 37.122,152.957 37.531 C 152.356 37.940,151.162 38.954,150.304 39.783 C 149.445 40.613,148.350 41.644,147.870 42.075 C 146.355 43.434,141.742 48.418,141.742 48.694 C 141.742 48.840,141.269 49.419,140.691 49.980 C 140.113 50.542,139.640 51.089,139.640 51.198 C 139.640 51.306,139.471 51.583,139.264 51.813 C 138.373 52.807,138.138 53.146,138.138 53.441 C 138.138 53.613,138.003 53.754,137.838 53.754 C 137.673 53.754,137.538 53.895,137.538 54.067 C 137.538 54.239,137.261 54.676,136.923 55.039 C 136.398 55.602,135.435 57.230,135.435 57.554 C 135.435 58.098,136.186 57.350,136.990 56.006 C 137.534 55.098,138.082 54.354,138.208 54.354 C 138.335 54.354,138.438 54.163,138.438 53.929 C 138.438 53.695,138.548 53.458,138.681 53.403 C 138.815 53.348,139.376 52.641,139.929 51.831 C 140.481 51.021,141.453 49.838,142.088 49.203 C 142.724 48.568,143.243 47.927,143.243 47.779 C 143.243 47.295,151.288 39.339,151.777 39.339 C 152.038 39.339,152.252 39.137,152.252 38.889 C 152.252 38.641,152.362 38.438,152.496 38.438 C 152.630 38.438,153.002 38.198,153.322 37.904 C 153.642 37.610,154.444 36.968,155.105 36.477 C 157.057 35.028,157.859 34.233,157.354 34.246 C 157.108 34.252,156.757 34.421,156.575 34.621 M252.853 37.387 C 252.853 37.635,252.964 37.838,253.099 37.838 C 253.234 37.838,253.766 38.209,254.280 38.664 C 256.168 40.331,256.490 40.555,256.760 40.388 C 257.016 40.230,256.066 39.039,255.684 39.039 C 255.590 39.039,255.338 38.870,255.124 38.664 C 253.424 37.024,252.853 36.703,252.853 37.387 M257.228 40.937 C 257.387 41.350,259.891 43.544,260.204 43.544 C 260.303 43.544,260.108 43.248,259.771 42.886 C 259.435 42.525,259.159 42.119,259.159 41.985 C 259.159 41.851,258.986 41.742,258.775 41.742 C 258.564 41.742,258.196 41.471,257.958 41.141 C 257.470 40.465,256.996 40.332,257.228 40.937 M261.703 45.439 C 261.953 45.822,262.497 46.429,262.911 46.789 C 263.325 47.149,263.664 47.647,263.664 47.896 C 263.664 48.145,263.788 48.348,263.940 48.348 C 264.275 48.348,267.868 53.011,267.868 53.445 C 267.868 53.615,268.003 53.754,268.168 53.754 C 268.333 53.754,268.468 53.898,268.468 54.074 C 268.468 54.250,268.806 54.837,269.219 55.379 C 269.632 55.920,269.970 56.473,269.970 56.607 C 269.970 56.741,270.277 57.268,270.652 57.779 C 271.027 58.291,271.530 59.114,271.771 59.610 C 272.012 60.105,272.516 61.015,272.891 61.631 C 273.266 62.247,273.574 62.956,273.574 63.207 C 273.574 63.458,273.709 63.664,273.874 63.664 C 274.039 63.664,274.174 63.469,274.174 63.231 C 274.174 62.993,274.039 62.715,273.874 62.613 C 273.709 62.511,273.574 62.165,273.574 61.844 C 273.574 61.524,273.438 61.261,273.273 61.261 C 273.108 61.261,272.973 60.923,272.973 60.511 C 272.973 60.098,272.838 59.760,272.673 59.760 C 272.508 59.760,272.372 59.504,272.372 59.191 C 272.372 58.879,272.201 58.557,271.991 58.476 C 271.781 58.396,271.212 57.570,270.726 56.642 C 270.240 55.714,269.737 54.955,269.606 54.955 C 269.476 54.955,269.369 54.752,269.369 54.505 C 269.369 54.257,269.234 54.054,269.069 54.054 C 268.904 54.054,268.769 53.866,268.769 53.635 C 268.769 53.405,268.433 52.898,268.023 52.509 C 267.613 52.120,267.275 51.659,267.272 51.485 C 267.270 51.310,266.659 50.514,265.916 49.716 C 265.173 48.918,264.565 48.142,264.565 47.992 C 264.565 47.698,261.703 44.745,261.419 44.745 C 261.325 44.745,261.452 45.057,261.703 45.439 M176.530 58.335 C 174.419 60.119,174.126 61.858,173.956 73.577 C 173.726 89.483,174.660 93.510,178.462 93.000 C 181.397 92.606,182.252 90.170,182.570 81.298 C 183.248 62.350,181.162 54.419,176.530 58.335 M222.526 58.509 C 219.700 61.335,219.059 85.916,221.676 91.089 C 223.493 94.678,226.940 93.244,228.360 88.309 C 229.068 85.845,229.049 65.031,228.335 62.181 C 227.269 57.923,224.722 56.313,222.526 58.509 M134.835 58.418 C 134.835 58.671,134.632 58.955,134.384 59.051 C 134.137 59.146,133.934 59.412,133.934 59.642 C 133.934 59.872,133.799 60.060,133.634 60.060 C 133.468 60.060,133.333 60.330,133.333 60.661 C 133.333 60.991,133.198 61.261,133.033 61.261 C 132.868 61.261,132.733 61.515,132.733 61.825 C 132.733 62.135,132.530 62.557,132.282 62.763 C 132.035 62.968,131.832 63.323,131.832 63.550 C 131.832 63.778,131.697 63.964,131.532 63.964 C 131.366 63.964,131.231 64.146,131.231 64.368 C 131.231 64.885,130.380 66.600,130.011 66.829 C 129.856 66.924,129.730 67.265,129.730 67.585 C 129.730 67.906,129.595 68.168,129.429 68.168 C 129.264 68.168,129.129 68.506,129.129 68.919 C 129.129 69.332,128.994 69.670,128.829 69.670 C 128.664 69.670,128.529 69.861,128.529 70.096 C 128.529 70.330,128.338 70.904,128.106 71.372 C 127.873 71.840,127.520 72.628,127.320 73.123 C 127.120 73.619,126.838 74.259,126.692 74.545 C 126.546 74.832,126.426 75.407,126.426 75.822 C 126.426 76.237,126.291 76.577,126.126 76.577 C 125.961 76.577,125.826 76.903,125.826 77.303 C 125.826 77.703,125.600 78.480,125.325 79.030 C 125.049 79.580,124.711 80.265,124.574 80.551 C 124.437 80.838,124.324 81.482,124.324 81.982 C 124.324 82.482,124.205 83.126,124.059 83.412 C 123.699 84.122,123.101 86.391,122.914 87.763 C 122.829 88.382,122.639 88.889,122.491 88.889 C 122.343 88.889,122.222 89.740,122.222 90.781 C 122.222 91.821,122.098 92.801,121.947 92.958 C 121.627 93.290,121.377 95.701,121.139 100.751 C 120.911 105.574,121.170 105.066,121.598 99.850 C 121.787 97.538,122.066 95.038,122.218 94.294 C 122.370 93.551,122.628 92.200,122.792 91.291 C 123.430 87.760,124.115 84.822,124.364 84.550 C 124.507 84.393,124.625 83.894,124.625 83.441 C 124.625 82.988,124.760 82.535,124.925 82.432 C 125.090 82.330,125.225 81.900,125.225 81.475 C 125.225 80.797,126.252 77.534,127.003 75.826 C 127.148 75.495,127.432 74.752,127.633 74.174 C 127.835 73.596,128.339 72.380,128.754 71.471 C 129.168 70.563,129.612 69.550,129.739 69.219 C 130.042 68.436,133.560 61.289,134.025 60.512 C 134.223 60.182,134.621 59.553,134.910 59.114 C 135.512 58.200,135.559 57.958,135.135 57.958 C 134.970 57.958,134.835 58.165,134.835 58.418 M179.720 59.257 C 180.997 60.533,181.942 65.109,181.346 67.127 C 179.824 72.282,175.375 70.148,175.375 64.264 C 175.375 60.073,177.773 57.310,179.720 59.257 M225.763 59.029 C 227.316 60.117,228.357 65.456,227.470 67.780 C 226.603 70.049,224.787 70.649,223.345 69.144 C 220.125 65.783,222.317 56.615,225.763 59.029 M274.174 64.243 C 274.174 64.424,274.300 64.807,274.453 65.094 C 274.606 65.381,275.045 66.291,275.428 67.117 C 276.033 68.423,276.137 68.522,276.229 67.878 C 276.288 67.470,276.187 67.087,276.005 67.027 C 275.824 66.966,275.676 66.590,275.676 66.191 C 275.676 65.792,275.550 65.465,275.396 65.465 C 275.243 65.465,275.074 65.172,275.021 64.813 C 274.923 64.148,274.174 63.644,274.174 64.243 M276.276 69.211 C 276.276 69.444,276.411 69.718,276.577 69.820 C 276.742 69.922,276.877 70.308,276.877 70.678 C 276.877 71.049,276.993 71.480,277.135 71.637 C 277.277 71.794,277.631 72.665,277.922 73.574 C 278.213 74.482,278.570 75.460,278.715 75.747 C 278.860 76.033,278.979 76.600,278.979 77.005 C 278.979 77.411,279.114 77.826,279.279 77.928 C 279.444 78.030,279.580 78.391,279.580 78.731 C 279.580 79.071,279.797 80.043,280.062 80.891 C 280.943 83.705,281.081 84.270,281.081 85.064 C 281.081 85.496,281.216 85.934,281.381 86.036 C 281.547 86.138,281.682 86.739,281.682 87.371 C 281.682 88.003,281.879 88.974,282.120 89.530 L 282.559 90.541 282.571 88.982 C 282.577 88.124,282.447 87.339,282.282 87.237 C 282.117 87.135,281.982 86.459,281.982 85.736 C 281.982 85.012,281.847 84.336,281.682 84.234 C 281.517 84.132,281.381 83.533,281.381 82.902 C 281.381 82.249,281.187 81.594,280.931 81.381 C 280.683 81.176,280.480 80.627,280.480 80.161 C 280.480 79.696,280.345 79.231,280.180 79.129 C 280.015 79.027,279.880 78.487,279.880 77.928 C 279.880 77.369,279.745 76.829,279.580 76.727 C 279.414 76.625,279.279 76.283,279.279 75.968 C 279.279 75.451,278.739 73.981,278.041 72.602 C 277.896 72.315,277.778 71.749,277.778 71.343 C 277.778 70.938,277.643 70.522,277.477 70.420 C 277.312 70.318,277.177 69.987,277.177 69.684 C 277.177 69.381,276.974 69.056,276.727 68.960 C 276.458 68.857,276.276 68.958,276.276 69.211 M282.510 90.896 C 282.437 91.031,282.631 92.560,282.942 94.294 C 283.252 96.029,283.630 98.799,283.782 100.450 C 283.934 102.102,284.207 104.737,284.388 106.306 C 284.569 107.875,284.819 110.240,284.945 111.562 C 285.168 113.914,285.178 113.936,285.399 112.613 C 285.526 111.853,285.469 110.013,285.269 108.408 C 285.073 106.839,284.858 104.407,284.790 103.003 C 284.722 101.599,284.542 100.180,284.389 99.850 C 284.236 99.520,284.045 98.506,283.965 97.598 C 283.602 93.500,282.886 90.202,282.510 90.896 M120.833 107.958 C 120.834 109.775,120.883 110.479,120.943 109.524 C 121.003 108.568,121.002 107.081,120.942 106.220 C 120.881 105.359,120.832 106.141,120.833 107.958 M285.520 140.525 C 285.567 155.134,285.656 167.138,285.719 167.200 C 286.267 167.749,286.241 119.652,285.691 115.766 C 285.543 114.721,285.471 125.122,285.520 140.525 M121.042 126.784 C 121.029 131.026,121.134 133.668,121.321 133.784 C 121.697 134.016,121.697 121.445,121.321 120.571 C 121.167 120.211,121.055 122.699,121.042 126.784 M121.796 148.649 C 122.276 163.326,122.960 179.837,123.251 183.784 C 123.318 184.692,123.470 188.915,123.589 193.168 C 123.708 197.421,123.909 200.901,124.036 200.901 C 124.394 200.901,124.810 220.335,124.459 220.686 C 124.367 220.778,124.166 220.655,124.012 220.412 C 123.803 220.080,123.732 220.069,123.728 220.367 C 123.726 220.585,123.917 220.957,124.153 221.193 C 125.165 222.205,125.254 221.732,125.104 216.141 C 124.620 198.138,124.385 191.273,124.207 189.940 C 124.097 189.114,123.862 184.992,123.684 180.781 C 123.033 165.287,122.821 160.053,122.562 153.003 C 122.416 149.039,122.150 145.390,121.970 144.895 C 121.720 144.205,121.679 145.086,121.796 148.649 M284.904 174.474 C 284.610 178.110,284.657 182.952,284.991 183.494 C 285.301 183.995,285.503 177.504,285.285 174.024 L 285.135 171.622 284.904 174.474 M121.622 184.256 C 121.622 184.573,122.449 185.259,122.623 185.085 C 122.717 184.991,122.608 184.727,122.380 184.499 C 121.947 184.066,121.622 183.962,121.622 184.256 M284.412 187.988 C 284.372 189.227,284.285 191.246,284.218 192.476 C 284.131 194.068,284.213 194.845,284.501 195.178 C 284.724 195.435,284.981 195.848,285.072 196.096 C 285.163 196.344,285.249 195.646,285.262 194.545 C 285.277 193.243,285.417 192.490,285.661 192.391 C 285.885 192.301,285.824 192.230,285.511 192.216 C 284.854 192.186,284.947 192.565,284.698 188.889 C 284.485 185.741,284.485 185.739,284.412 187.988 M283.832 199.775 C 283.793 201.665,283.868 202.102,284.234 202.102 C 284.744 202.102,284.879 200.319,284.406 199.835 C 284.252 199.678,284.071 199.077,284.003 198.498 C 283.935 197.920,283.858 198.495,283.832 199.775 M330.330 203.715 C 330.330 203.843,330.523 204.140,330.759 204.376 C 331.245 204.862,333.033 204.963,333.033 204.505 C 333.033 204.339,332.587 204.204,332.042 204.204 C 331.497 204.204,330.889 204.042,330.691 203.844 C 330.492 203.646,330.330 203.588,330.330 203.715 M283.254 207.808 C 282.487 212.959,282.548 216.817,283.396 216.817 C 283.854 216.817,283.828 215.379,283.336 213.495 C 283.218 213.046,283.318 212.297,283.574 211.694 L 284.013 210.661 284.330 211.411 C 284.631 212.126,284.648 212.130,284.666 211.501 C 284.676 211.138,284.488 210.731,284.248 210.596 C 283.931 210.419,283.786 209.651,283.722 207.803 L 283.634 205.255 283.254 207.808 M282.639 219.576 C 282.424 220.185,282.019 220.744,281.740 220.817 C 281.334 220.924,281.353 220.957,281.832 220.982 C 282.842 221.032,283.235 220.580,283.129 219.488 L 283.030 218.468 282.639 219.576 M276.128 226.425 C 275.828 226.756,275.681 227.027,275.801 227.027 C 276.117 227.027,276.973 226.122,276.811 225.960 C 276.735 225.884,276.428 226.093,276.128 226.425 " stroke="none" fill="#030303" fill-rule="evenodd"></path><path id="path2" d="M196.847 100.473 C 192.920 101.021,191.346 101.321,190.003 101.778 L 188.455 102.304 190.585 102.483 C 200.500 103.314,202.682 113.630,193.616 116.817 C 186.092 119.461,177.248 113.852,179.698 107.988 L 180.183 106.826 178.849 107.993 C 168.996 116.605,178.246 130.295,195.375 132.452 C 216.820 135.151,233.471 120.073,222.148 108.209 C 217.009 102.824,205.413 99.279,196.847 100.473 " stroke="none" fill="#bc5352" fill-rule="evenodd"></path><path id="path3" d="M192.492 19.520 C 192.492 19.696,191.447 19.820,189.958 19.820 C 188.564 19.820,187.339 19.955,187.237 20.120 C 187.135 20.285,186.392 20.420,185.586 20.420 C 184.779 20.420,184.036 20.556,183.934 20.721 C 183.832 20.886,183.317 21.022,182.790 21.023 C 182.263 21.024,181.445 21.227,180.972 21.473 C 180.499 21.720,179.654 21.922,179.095 21.922 C 178.536 21.922,178.078 22.057,178.078 22.222 C 178.078 22.387,177.613 22.523,177.045 22.523 C 176.476 22.523,175.928 22.658,175.826 22.823 C 175.724 22.988,175.388 23.123,175.079 23.123 C 174.770 23.123,174.315 23.326,174.067 23.574 C 173.819 23.821,173.345 24.024,173.012 24.024 C 172.680 24.024,172.324 24.159,172.222 24.324 C 172.120 24.489,171.639 24.625,171.153 24.625 C 170.668 24.625,170.270 24.760,170.270 24.925 C 170.270 25.090,170.031 25.225,169.739 25.225 C 169.447 25.225,168.711 25.563,168.104 25.976 C 167.496 26.389,166.810 26.727,166.579 26.727 C 165.964 26.727,164.264 27.625,164.264 27.950 C 164.264 28.103,164.062 28.228,163.814 28.228 C 163.566 28.228,163.363 28.363,163.363 28.529 C 163.363 28.694,163.026 28.829,162.613 28.829 C 162.200 28.829,161.862 28.933,161.862 29.061 C 161.862 29.188,161.389 29.548,160.811 29.859 C 160.233 30.170,159.760 30.539,159.760 30.678 C 159.760 30.817,159.489 30.931,159.159 30.931 C 158.829 30.931,158.559 31.066,158.559 31.231 C 158.559 31.396,158.414 31.532,158.237 31.532 C 158.060 31.532,157.727 31.700,157.496 31.907 C 156.503 32.798,156.163 33.033,155.869 33.033 C 155.696 33.033,155.556 33.159,155.556 33.313 C 155.556 33.467,155.275 33.682,154.932 33.791 C 154.589 33.900,153.834 34.450,153.255 35.012 C 152.675 35.575,152.072 36.036,151.914 36.036 C 151.757 36.036,151.098 36.577,150.450 37.237 C 149.803 37.898,149.133 38.438,148.961 38.438 C 148.789 38.438,148.649 38.609,148.649 38.818 C 148.649 39.026,148.283 39.465,147.836 39.794 C 146.880 40.495,143.844 43.447,143.844 43.674 C 143.844 43.761,143.101 44.563,142.192 45.457 C 141.284 46.351,140.541 47.163,140.541 47.262 C 140.541 47.434,139.623 48.579,138.814 49.418 C 138.607 49.632,138.438 49.952,138.438 50.129 C 138.438 50.306,138.236 50.450,137.988 50.450 C 137.740 50.450,137.538 50.652,137.538 50.897 C 137.538 51.308,137.065 52.010,136.111 53.015 C 135.905 53.233,135.736 53.497,135.736 53.602 C 135.736 53.708,135.398 54.237,134.985 54.778 C 134.572 55.319,134.234 55.907,134.234 56.084 C 134.234 56.262,134.119 56.451,133.979 56.507 C 133.582 56.662,132.132 59.093,132.132 59.604 C 132.132 59.855,132.026 60.060,131.895 60.060 C 131.765 60.060,131.258 60.837,130.769 61.787 C 130.280 62.736,129.779 63.559,129.655 63.614 C 129.531 63.669,129.429 63.973,129.429 64.289 C 129.429 64.606,129.320 64.865,129.187 64.865 C 128.888 64.865,127.928 66.990,127.928 67.651 C 127.928 67.916,127.793 68.216,127.628 68.318 C 127.462 68.420,127.327 68.752,127.327 69.055 C 127.327 69.358,127.125 69.683,126.877 69.778 C 126.629 69.873,126.426 70.218,126.426 70.543 C 126.426 70.869,126.291 71.219,126.126 71.321 C 125.961 71.423,125.826 71.829,125.826 72.222 C 125.826 72.616,125.691 73.021,125.526 73.123 C 125.360 73.225,125.225 73.622,125.225 74.005 C 125.225 74.388,125.023 74.869,124.775 75.075 C 124.527 75.281,124.324 75.695,124.324 75.995 C 124.324 76.295,124.189 76.625,124.024 76.727 C 123.859 76.829,123.724 77.302,123.724 77.778 C 123.724 78.254,123.589 78.727,123.423 78.829 C 123.258 78.931,123.123 79.464,123.123 80.013 C 123.123 80.563,122.921 81.399,122.675 81.873 C 122.428 82.346,122.225 82.969,122.224 83.258 C 122.223 83.547,122.087 83.784,121.922 83.784 C 121.757 83.784,121.622 84.384,121.622 85.117 C 121.622 85.851,121.486 86.535,121.321 86.637 C 121.156 86.739,121.021 87.490,121.021 88.306 C 121.021 89.122,120.886 89.790,120.721 89.790 C 120.550 89.790,120.420 90.680,120.420 91.860 C 120.420 93.445,120.312 93.971,119.959 94.107 C 119.375 94.331,119.435 100.024,120.024 100.219 C 120.273 100.301,120.420 99.505,120.519 97.541 C 120.684 94.248,121.171 90.933,121.610 90.112 C 121.781 89.792,121.922 88.980,121.922 88.308 C 121.922 87.637,122.057 87.087,122.222 87.087 C 122.387 87.087,122.523 86.479,122.523 85.736 C 122.523 84.992,122.658 84.384,122.823 84.384 C 122.988 84.384,123.123 83.927,123.123 83.368 C 123.123 82.808,123.325 81.964,123.572 81.491 C 123.818 81.018,124.021 80.402,124.022 80.123 C 124.023 79.844,124.159 79.532,124.324 79.429 C 124.489 79.327,124.625 78.846,124.625 78.361 C 124.625 77.875,124.760 77.477,124.925 77.477 C 125.090 77.477,125.225 77.062,125.225 76.555 C 125.225 76.048,125.428 75.430,125.676 75.182 C 125.923 74.935,126.126 74.479,126.126 74.170 C 126.126 73.862,126.261 73.526,126.426 73.423 C 126.592 73.321,126.727 72.908,126.727 72.505 C 126.727 72.102,126.862 71.772,127.027 71.772 C 127.192 71.772,127.327 71.512,127.327 71.196 C 127.327 70.578,128.230 68.684,128.604 68.519 C 128.727 68.463,128.829 68.092,128.829 67.693 C 128.829 67.294,128.964 66.967,129.129 66.967 C 129.294 66.967,129.429 66.708,129.429 66.391 C 129.429 66.075,129.531 65.771,129.655 65.716 C 129.779 65.661,130.417 64.535,131.073 63.213 C 131.730 61.892,132.547 60.405,132.890 59.910 C 133.233 59.414,133.710 58.604,133.949 58.108 C 134.188 57.613,134.553 57.099,134.759 56.967 C 134.966 56.835,135.135 56.531,135.135 56.291 C 135.135 56.052,135.237 55.856,135.362 55.856 C 135.487 55.856,135.755 55.484,135.957 55.030 C 136.159 54.576,136.665 53.838,137.081 53.391 C 137.497 52.944,137.838 52.438,137.838 52.265 C 137.838 52.093,137.973 51.952,138.138 51.952 C 138.303 51.952,138.438 51.818,138.438 51.654 C 138.438 51.383,139.198 50.383,140.165 49.381 C 140.372 49.167,140.541 48.858,140.541 48.695 C 140.541 48.532,140.642 48.353,140.766 48.298 C 140.890 48.243,141.869 47.193,142.943 45.965 C 145.625 42.898,148.817 39.832,151.910 37.355 C 152.300 37.042,152.773 36.647,152.961 36.476 C 153.149 36.304,153.844 35.765,154.505 35.276 C 155.165 34.788,155.773 34.309,155.856 34.213 C 155.938 34.117,156.445 33.783,156.982 33.471 C 157.519 33.159,157.958 32.798,157.958 32.668 C 157.958 32.538,158.114 32.432,158.305 32.432 C 158.496 32.432,159.095 32.095,159.636 31.682 C 160.178 31.269,160.765 30.931,160.941 30.931 C 161.117 30.931,161.261 30.796,161.261 30.631 C 161.261 30.465,161.532 30.330,161.862 30.330 C 162.192 30.330,162.462 30.195,162.462 30.030 C 162.462 29.865,162.600 29.730,162.769 29.730 C 162.937 29.730,163.610 29.392,164.264 28.979 C 164.918 28.566,165.659 28.228,165.910 28.228 C 166.161 28.228,166.366 28.093,166.366 27.928 C 166.366 27.763,166.637 27.628,166.967 27.628 C 167.297 27.628,167.568 27.518,167.568 27.385 C 167.568 27.082,169.696 26.126,170.371 26.126 C 170.646 26.126,170.871 25.991,170.871 25.826 C 170.871 25.661,171.209 25.526,171.622 25.526 C 172.035 25.526,172.372 25.390,172.372 25.225 C 172.372 25.060,172.609 24.924,172.898 24.923 C 173.187 24.922,173.810 24.719,174.284 24.473 C 174.757 24.226,175.391 24.024,175.692 24.024 C 175.994 24.024,176.324 23.889,176.426 23.724 C 176.529 23.559,177.077 23.423,177.645 23.423 C 178.214 23.423,178.679 23.288,178.679 23.123 C 178.679 22.958,179.050 22.822,179.505 22.821 C 179.959 22.820,180.717 22.617,181.190 22.371 C 181.664 22.124,182.508 21.922,183.067 21.922 C 183.627 21.922,184.084 21.787,184.084 21.622 C 184.084 21.455,184.885 21.321,185.886 21.321 C 186.887 21.321,187.688 21.188,187.688 21.021 C 187.688 20.850,188.576 20.721,189.752 20.721 C 190.887 20.721,192.391 20.518,193.093 20.270 C 194.067 19.927,195.816 19.820,200.474 19.820 C 204.930 19.820,207.044 19.941,208.307 20.270 C 209.258 20.518,210.954 20.721,212.075 20.721 C 213.234 20.721,214.114 20.850,214.114 21.021 C 214.114 21.193,215.015 21.321,216.216 21.321 C 217.372 21.321,218.318 21.443,218.318 21.593 C 218.318 21.742,218.960 21.930,219.745 22.011 C 221.280 22.169,223.551 22.729,224.395 23.158 C 224.682 23.304,225.392 23.423,225.972 23.423 C 226.552 23.423,227.027 23.559,227.027 23.724 C 227.027 23.889,227.417 24.024,227.894 24.024 C 228.370 24.024,229.147 24.226,229.620 24.473 C 230.093 24.719,230.709 24.922,230.988 24.923 C 231.268 24.924,231.580 25.060,231.682 25.225 C 231.784 25.390,232.265 25.526,232.750 25.526 C 233.236 25.526,233.634 25.661,233.634 25.826 C 233.634 25.991,234.039 26.126,234.535 26.126 C 235.030 26.126,235.435 26.261,235.435 26.426 C 235.435 26.592,235.696 26.727,236.015 26.727 C 236.333 26.727,236.796 26.929,237.044 27.177 C 237.292 27.425,237.767 27.628,238.099 27.628 C 238.431 27.628,238.787 27.763,238.889 27.928 C 238.991 28.093,239.404 28.228,239.808 28.228 C 240.211 28.228,240.541 28.349,240.541 28.496 C 240.541 28.643,240.878 28.849,241.291 28.952 C 241.704 29.056,242.042 29.273,242.042 29.435 C 242.042 29.597,242.304 29.730,242.625 29.730 C 242.946 29.730,243.291 29.865,243.393 30.030 C 243.495 30.195,243.841 30.330,244.162 30.330 C 244.482 30.330,244.745 30.433,244.745 30.559 C 244.745 30.789,245.635 31.331,246.622 31.704 C 246.911 31.813,247.147 32.021,247.147 32.167 C 247.147 32.313,247.417 32.432,247.748 32.432 C 248.078 32.432,248.348 32.546,248.348 32.685 C 248.348 32.825,248.821 33.193,249.399 33.504 C 249.977 33.816,250.450 34.175,250.450 34.303 C 250.450 34.430,250.653 34.535,250.901 34.535 C 251.149 34.535,251.351 34.670,251.351 34.835 C 251.351 35.000,251.558 35.135,251.811 35.135 C 252.064 35.135,252.349 35.338,252.444 35.586 C 252.539 35.833,252.805 36.036,253.035 36.036 C 253.265 36.036,253.453 36.171,253.453 36.336 C 253.453 36.502,253.594 36.637,253.766 36.637 C 253.938 36.637,254.378 36.919,254.742 37.263 C 255.107 37.608,255.946 38.317,256.607 38.840 C 258.945 40.689,264.655 46.609,266.504 49.103 C 266.993 49.761,267.499 50.345,267.630 50.400 C 267.761 50.455,267.868 50.692,267.868 50.926 C 267.868 51.160,268.003 51.351,268.168 51.351 C 268.333 51.351,268.468 51.554,268.468 51.802 C 268.468 52.050,268.604 52.252,268.769 52.252 C 268.934 52.252,269.069 52.397,269.069 52.574 C 269.069 52.751,269.238 53.084,269.444 53.314 C 270.139 54.088,270.418 54.500,270.865 55.405 C 271.109 55.901,271.616 56.724,271.991 57.236 C 272.366 57.747,272.673 58.321,272.673 58.512 C 272.673 58.703,272.808 58.859,272.973 58.859 C 273.138 58.859,273.273 59.064,273.273 59.315 C 273.273 59.566,273.611 60.307,274.024 60.961 C 274.437 61.615,274.775 62.356,274.775 62.607 C 274.775 62.858,274.910 63.063,275.075 63.063 C 275.240 63.063,275.375 63.255,275.375 63.489 C 275.375 63.990,276.325 65.871,276.652 66.016 C 276.776 66.071,276.877 66.435,276.877 66.824 C 276.877 67.214,277.012 67.616,277.177 67.718 C 277.342 67.820,277.477 68.233,277.477 68.636 C 277.477 69.040,277.597 69.369,277.743 69.369 C 277.889 69.369,278.078 69.673,278.163 70.045 C 278.356 70.888,278.974 72.652,279.320 73.344 C 279.463 73.631,279.580 74.205,279.580 74.621 C 279.580 75.036,279.715 75.375,279.880 75.375 C 280.045 75.375,280.180 75.698,280.180 76.092 C 280.180 76.486,280.382 77.195,280.629 77.668 C 280.876 78.141,281.078 78.833,281.079 79.204 C 281.080 79.576,281.216 79.880,281.381 79.880 C 281.547 79.880,281.682 80.488,281.682 81.231 C 281.682 81.974,281.803 82.583,281.952 82.583 C 282.100 82.583,282.294 83.157,282.381 83.859 C 282.601 85.616,283.296 88.501,283.563 88.768 C 283.685 88.890,283.784 89.837,283.784 90.873 C 283.784 91.909,283.919 92.841,284.084 92.943 C 284.249 93.045,284.384 93.988,284.384 95.038 C 284.384 96.088,284.513 96.992,284.670 97.047 C 284.827 97.102,285.049 98.397,285.163 99.925 C 285.278 101.453,285.487 102.703,285.629 102.703 C 285.770 102.703,285.886 104.316,285.886 106.289 C 285.886 108.355,286.013 109.953,286.186 110.060 C 286.370 110.173,286.489 112.549,286.494 116.159 C 286.498 119.411,286.632 122.639,286.792 123.331 C 286.952 124.023,287.150 130.632,287.232 138.017 C 287.314 145.403,287.435 151.499,287.501 151.565 C 287.801 151.865,288.025 139.250,287.860 131.381 C 287.480 113.326,286.912 103.308,286.229 102.625 C 286.019 102.415,285.886 101.148,285.886 99.357 C 285.886 97.731,285.753 96.349,285.586 96.246 C 285.420 96.144,285.285 95.266,285.285 94.294 C 285.285 93.323,285.169 92.456,285.027 92.368 C 284.885 92.280,284.695 91.297,284.606 90.183 C 284.516 89.069,284.295 88.108,284.113 88.048 C 283.929 87.986,283.784 87.230,283.784 86.329 C 283.784 85.444,283.649 84.637,283.483 84.535 C 283.318 84.432,283.183 83.895,283.183 83.341 C 283.183 82.786,283.054 82.287,282.896 82.232 C 282.738 82.177,282.574 81.610,282.532 80.972 C 282.490 80.334,282.281 79.745,282.068 79.664 C 281.834 79.574,281.682 78.995,281.682 78.196 C 281.682 77.471,281.547 76.877,281.381 76.877 C 281.216 76.877,281.081 76.479,281.081 75.994 C 281.081 75.508,280.946 75.027,280.781 74.925 C 280.616 74.823,280.480 74.289,280.480 73.738 C 280.480 73.125,280.306 72.670,280.030 72.564 C 279.767 72.463,279.580 72.013,279.580 71.481 C 279.580 70.980,279.444 70.571,279.279 70.571 C 279.114 70.571,278.979 70.241,278.979 69.838 C 278.979 69.434,278.844 69.021,278.679 68.919 C 278.514 68.817,278.378 68.482,278.378 68.175 C 278.378 67.571,277.470 65.679,277.102 65.516 C 276.978 65.460,276.877 65.156,276.877 64.840 C 276.877 64.523,276.742 64.264,276.577 64.264 C 276.411 64.264,276.276 64.074,276.276 63.842 C 276.276 63.609,275.951 62.764,275.554 61.965 C 275.156 61.165,274.650 60.071,274.429 59.535 C 274.208 58.998,273.925 58.559,273.801 58.559 C 273.676 58.559,273.574 58.288,273.574 57.958 C 273.574 57.624,273.373 57.357,273.123 57.357 C 272.854 57.357,272.673 57.081,272.673 56.673 C 272.673 56.296,272.402 55.794,272.072 55.556 C 271.742 55.317,271.471 54.889,271.471 54.603 C 271.471 54.318,271.302 53.976,271.096 53.844 C 270.889 53.712,270.517 53.198,270.270 52.703 C 270.023 52.207,269.746 51.734,269.654 51.652 C 269.563 51.569,269.091 50.961,268.606 50.300 C 268.121 49.640,267.419 48.825,267.045 48.489 C 266.672 48.153,266.366 47.714,266.366 47.513 C 266.366 47.312,266.231 47.147,266.066 47.147 C 265.901 47.147,265.766 46.989,265.766 46.795 C 265.766 46.602,265.158 45.861,264.414 45.149 C 263.671 44.437,263.063 43.774,263.063 43.677 C 263.063 43.463,262.265 42.643,262.056 42.643 C 261.974 42.643,260.849 41.594,259.557 40.311 C 258.265 39.029,256.667 37.583,256.006 37.099 C 255.345 36.614,254.737 36.142,254.655 36.050 C 254.572 35.958,253.964 35.485,253.303 34.999 C 252.643 34.513,252.035 34.030,251.952 33.926 C 251.869 33.821,251.363 33.545,250.826 33.311 C 250.289 33.078,249.850 32.791,249.850 32.674 C 249.850 32.556,249.343 32.225,248.724 31.937 C 247.362 31.305,245.233 29.966,245.095 29.655 C 245.040 29.531,244.668 29.429,244.269 29.429 C 243.870 29.429,243.544 29.294,243.544 29.129 C 243.544 28.964,243.273 28.829,242.943 28.829 C 242.613 28.829,242.342 28.694,242.342 28.529 C 242.342 28.363,242.005 28.228,241.592 28.228 C 241.124 28.228,240.841 28.058,240.841 27.778 C 240.841 27.497,240.557 27.327,240.090 27.327 C 239.677 27.327,239.339 27.192,239.339 27.027 C 239.339 26.862,238.934 26.727,238.438 26.727 C 237.943 26.727,237.538 26.592,237.538 26.426 C 237.538 26.261,237.214 26.126,236.819 26.126 C 236.424 26.126,236.019 25.915,235.920 25.657 C 235.821 25.398,235.628 25.256,235.491 25.341 C 235.354 25.426,234.865 25.299,234.404 25.060 C 233.942 24.820,233.175 24.625,232.698 24.625 C 232.222 24.625,231.832 24.489,231.832 24.324 C 231.832 24.159,231.443 24.024,230.968 24.024 C 230.492 24.024,229.935 23.821,229.730 23.574 C 229.524 23.326,229.043 23.123,228.660 23.123 C 228.277 23.123,227.880 22.988,227.778 22.823 C 227.676 22.658,227.000 22.523,226.276 22.523 C 225.553 22.523,224.877 22.387,224.775 22.222 C 224.673 22.057,224.151 21.922,223.616 21.922 C 223.081 21.922,222.510 21.789,222.347 21.626 C 222.184 21.464,221.178 21.187,220.110 21.011 C 219.042 20.836,217.425 20.552,216.517 20.380 C 215.608 20.209,213.716 20.003,212.312 19.923 C 210.908 19.843,209.631 19.652,209.474 19.498 C 209.076 19.109,192.492 19.129,192.492 19.520 M196.997 22.391 C 196.419 22.455,194.392 22.654,192.492 22.834 C 188.751 23.188,188.076 23.304,182.883 24.493 C 179.580 25.249,175.127 26.614,173.048 27.508 C 172.511 27.739,171.565 28.145,170.946 28.410 C 153.005 36.097,137.732 52.222,129.448 72.222 C 127.175 77.711,125.653 82.671,124.059 89.790 C 122.286 97.704,121.757 111.354,122.516 129.580 C 122.681 133.544,122.960 140.571,123.135 145.195 C 123.310 149.820,123.589 156.239,123.755 159.459 C 124.060 165.371,124.413 172.803,124.925 184.084 C 125.079 187.470,125.339 194.159,125.504 198.949 C 125.669 203.739,125.876 208.739,125.964 210.060 C 126.202 213.597,126.203 221.690,125.966 222.297 C 125.827 222.655,125.905 222.823,126.212 222.823 C 126.460 222.823,126.740 223.026,126.835 223.273 C 126.939 223.543,127.391 223.724,127.964 223.724 L 128.921 223.724 128.726 220.495 C 128.618 218.720,128.396 215.308,128.233 212.913 C 127.638 204.224,127.311 198.781,126.862 190.090 C 126.611 185.218,126.275 178.799,126.116 175.826 C 122.735 112.612,126.583 76.840,138.032 65.049 C 140.301 62.711,140.241 62.726,141.369 64.260 C 149.302 75.047,171.432 64.760,177.215 47.598 C 178.959 42.424,176.361 35.021,172.457 34.041 C 170.281 33.495,174.466 31.681,182.733 29.587 C 222.372 19.546,259.211 36.839,273.291 72.096 C 276.423 79.937,280.278 94.084,282.882 107.294 C 283.006 107.920,283.192 108.517,283.295 108.621 C 283.803 109.128,283.196 102.385,282.128 95.646 C 281.866 93.994,281.524 91.832,281.367 90.841 C 281.210 89.850,280.734 87.620,280.309 85.886 C 279.884 84.152,279.421 82.260,279.281 81.682 C 278.761 79.536,277.425 75.094,276.887 73.724 C 276.757 73.393,276.141 71.772,275.517 70.120 C 274.537 67.527,273.413 65.097,270.816 59.964 C 269.353 57.071,264.835 50.598,262.290 47.748 C 252.898 37.231,243.036 31.218,226.877 26.158 C 224.848 25.522,218.772 24.179,215.234 23.584 C 210.193 22.737,199.941 22.066,196.997 22.391 M176.955 59.968 C 174.074 64.101,176.924 72.405,179.978 68.776 C 180.956 67.614,181.184 66.480,180.935 64.009 C 180.527 59.944,178.445 57.831,176.955 59.968 M223.300 59.835 C 221.595 62.465,222.149 68.392,224.186 69.320 C 226.676 70.455,228.174 66.381,226.874 62.012 C 226.142 59.550,225.848 59.159,224.731 59.159 C 224.031 59.159,223.608 59.359,223.300 59.835 M119.111 101.109 C 119.005 101.215,118.919 104.792,118.919 109.059 C 118.919 114.031,118.811 116.817,118.619 116.817 C 118.431 116.817,118.318 118.619,118.318 121.622 C 118.318 124.625,118.431 126.426,118.619 126.426 C 118.800 126.426,118.919 127.678,118.919 129.580 C 118.919 131.481,119.038 132.733,119.219 132.733 C 119.411 132.733,119.520 135.363,119.520 140.023 C 119.520 145.908,119.604 147.434,119.955 147.936 C 120.297 148.423,120.426 150.209,120.554 156.186 C 120.888 171.862,121.563 183.517,122.147 183.710 C 122.431 183.804,122.523 183.069,122.523 180.681 C 122.523 178.682,122.403 177.488,122.197 177.419 C 121.977 177.346,121.878 175.500,121.892 171.763 C 121.904 168.712,121.767 165.270,121.587 164.114 C 121.252 161.958,120.790 150.942,120.599 140.541 C 120.540 137.320,120.342 129.482,120.160 123.123 C 119.978 116.764,119.826 109.238,119.824 106.399 C 119.820 101.706,119.665 100.555,119.111 101.109 M186.235 102.981 C 179.978 105.309,177.669 109.373,180.380 113.285 C 185.927 121.289,201.991 116.721,199.100 107.962 C 197.742 103.847,190.962 101.222,186.235 102.981 M286.694 158.859 C 286.581 160.758,286.489 165.784,286.488 170.027 C 286.487 174.845,286.374 177.812,286.186 177.928 C 286.001 178.042,285.886 180.554,285.886 184.462 C 285.886 189.462,285.964 190.733,286.253 190.444 C 286.740 189.957,287.107 182.044,287.272 168.451 C 287.407 157.361,287.092 152.138,286.694 158.859 M121.766 190.465 C 121.433 191.812,121.750 199.193,122.147 199.325 C 122.437 199.421,122.523 198.350,122.523 194.620 C 122.523 190.150,122.235 188.571,121.766 190.465 M330.531 202.302 C 330.123 202.710,330.354 203.188,331.202 203.689 C 332.433 204.416,333.634 204.374,333.634 203.604 C 333.634 203.196,333.433 203.003,333.012 203.003 C 332.669 203.003,332.187 202.800,331.939 202.553 C 331.462 202.076,330.863 201.970,330.531 202.302 M122.222 207.648 C 122.222 211.921,122.284 212.570,122.673 212.421 C 123.047 212.277,123.123 211.441,123.123 207.475 C 123.123 203.433,123.054 202.703,122.673 202.703 C 122.291 202.703,122.222 203.452,122.222 207.648 " stroke="none" fill="#f2f2f2" fill-rule="evenodd"></path><path id="path4" d="M195.495 20.411 C 195.083 20.548,193.799 20.683,192.643 20.710 C 190.791 20.753,186.448 21.487,187.237 21.623 C 188.012 21.757,190.573 21.543,190.841 21.322 C 191.006 21.185,192.830 20.996,194.895 20.901 C 196.959 20.806,198.986 20.705,199.399 20.677 C 200.974 20.569,210.975 21.112,211.261 21.321 C 211.699 21.641,215.015 21.921,215.015 21.639 C 215.015 20.858,197.469 19.753,195.495 20.411 M192.643 21.763 C 190.991 21.975,188.761 22.250,187.688 22.376 C 186.614 22.502,185.465 22.748,185.135 22.922 C 184.805 23.096,183.926 23.339,183.183 23.462 C 180.523 23.903,178.187 24.560,174.474 25.912 C 170.533 27.349,169.670 27.722,169.670 27.994 C 169.670 28.123,169.480 28.228,169.248 28.228 C 168.836 28.228,167.764 28.705,165.315 29.976 C 164.655 30.319,163.540 30.880,162.838 31.223 C 162.136 31.566,161.562 31.979,161.562 32.140 C 161.562 32.301,161.417 32.432,161.240 32.432 C 161.064 32.432,160.308 32.853,159.562 33.366 C 158.567 34.051,158.115 34.211,157.871 33.967 C 157.627 33.723,157.678 33.634,158.062 33.634 C 158.351 33.634,158.900 33.296,159.283 32.883 C 159.666 32.470,160.200 32.132,160.470 32.132 C 160.740 32.132,160.961 31.997,160.961 31.832 C 160.961 31.667,161.164 31.532,161.411 31.532 C 161.659 31.532,161.862 31.399,161.862 31.237 C 161.862 31.075,162.200 30.858,162.613 30.754 C 163.026 30.650,163.363 30.445,163.363 30.298 C 163.363 30.151,163.634 30.030,163.964 30.030 C 164.294 30.030,164.565 29.895,164.565 29.730 C 164.565 29.565,164.835 29.429,165.165 29.429 C 165.495 29.429,165.766 29.309,165.766 29.162 C 165.766 29.014,166.104 28.809,166.517 28.706 C 166.929 28.602,167.267 28.385,167.267 28.223 C 167.267 28.060,167.472 27.928,167.722 27.928 C 167.972 27.928,168.411 27.804,168.698 27.653 C 169.739 27.103,171.420 26.426,171.742 26.426 C 171.924 26.426,172.072 26.291,172.072 26.126 C 172.072 25.961,172.410 25.826,172.823 25.826 C 173.236 25.826,173.574 25.691,173.574 25.526 C 173.574 25.360,173.971 25.225,174.457 25.225 C 174.942 25.225,175.423 25.090,175.526 24.925 C 175.628 24.760,176.075 24.620,176.519 24.615 C 176.964 24.610,177.590 24.407,177.910 24.165 C 178.231 23.922,178.865 23.724,179.319 23.724 C 179.773 23.724,180.228 23.589,180.330 23.423 C 180.432 23.258,180.973 23.123,181.532 23.123 C 182.090 23.123,182.631 22.988,182.733 22.823 C 182.835 22.658,183.485 22.518,184.177 22.512 C 184.869 22.506,185.773 22.298,186.186 22.049 C 186.922 21.606,186.913 21.600,185.736 21.771 C 185.075 21.867,183.994 22.021,183.333 22.114 C 182.673 22.208,182.004 22.405,181.847 22.553 C 181.690 22.702,181.310 22.823,181.002 22.823 C 180.359 22.823,177.578 23.633,176.806 24.046 C 176.519 24.199,176.020 24.324,175.697 24.324 C 175.375 24.324,175.027 24.459,174.925 24.625 C 174.823 24.790,174.417 24.925,174.024 24.925 C 173.631 24.925,173.225 25.060,173.123 25.225 C 173.021 25.390,172.746 25.526,172.513 25.526 C 172.125 25.526,169.416 26.652,168.052 27.381 C 167.740 27.548,166.187 28.361,164.602 29.188 C 163.016 30.015,161.358 30.948,160.918 31.262 C 160.478 31.575,159.969 31.832,159.788 31.832 C 159.608 31.832,159.459 31.945,159.459 32.084 C 159.459 32.223,159.155 32.476,158.784 32.646 C 155.206 34.288,145.580 43.023,140.984 48.799 C 140.327 49.625,139.718 50.368,139.630 50.450 C 139.542 50.533,138.938 51.344,138.288 52.252 C 137.639 53.161,137.034 53.971,136.944 54.054 C 136.562 54.406,135.135 56.770,135.135 57.051 C 135.135 57.219,135.000 57.357,134.835 57.357 C 134.670 57.357,134.535 57.516,134.535 57.709 C 134.535 57.903,134.342 58.274,134.106 58.535 C 133.013 59.744,126.727 72.409,126.727 73.402 C 126.727 73.642,126.592 73.922,126.426 74.024 C 126.261 74.126,126.126 74.474,126.126 74.797 C 126.126 75.119,126.007 75.618,125.862 75.905 C 125.717 76.192,125.359 77.170,125.067 78.078 C 124.775 78.986,124.438 79.865,124.318 80.030 C 124.198 80.195,124.023 80.736,123.930 81.231 C 123.837 81.727,123.625 82.673,123.459 83.333 C 123.293 83.994,123.007 85.210,122.822 86.036 C 122.638 86.862,122.367 87.808,122.220 88.138 C 122.073 88.468,121.884 89.347,121.799 90.090 C 121.713 90.833,121.509 92.320,121.345 93.393 C 120.103 101.514,119.756 108.130,120.117 116.817 C 120.313 121.524,120.595 129.429,120.744 134.384 C 120.892 139.339,121.163 146.974,121.344 151.351 C 121.526 155.728,121.791 162.485,121.935 166.366 C 122.078 170.248,122.313 175.450,122.457 177.928 C 122.601 180.405,122.615 182.902,122.487 183.476 C 122.342 184.130,122.373 184.592,122.571 184.715 C 122.789 184.849,122.784 184.974,122.555 185.115 C 122.072 185.414,122.141 189.230,122.648 190.269 C 123.466 191.945,123.641 200.300,122.862 200.503 C 122.379 200.630,122.223 200.902,122.227 201.612 C 122.230 202.309,122.304 202.438,122.511 202.111 C 122.664 201.868,122.899 201.778,123.032 201.910 C 123.569 202.446,123.930 212.450,123.423 212.763 C 122.885 213.095,123.107 213.769,123.799 213.902 L 124.474 214.032 123.799 214.073 C 122.797 214.134,122.757 219.373,123.752 220.225 C 124.098 220.521,124.436 220.709,124.504 220.641 C 124.820 220.325,124.359 200.901,124.036 200.901 C 123.909 200.901,123.708 197.421,123.589 193.168 C 123.470 188.915,123.318 184.692,123.251 183.784 C 123.063 181.223,122.533 169.432,122.226 160.961 C 121.636 144.683,121.624 143.941,121.970 144.895 C 122.150 145.390,122.416 149.039,122.562 153.003 C 122.821 160.053,123.033 165.287,123.684 180.781 C 123.862 184.992,124.097 189.114,124.207 189.940 C 124.388 191.297,124.704 200.620,125.104 216.441 C 125.196 220.095,125.363 222.222,125.558 222.222 C 126.010 222.222,125.233 197.910,124.018 174.024 C 123.858 170.886,123.519 163.724,123.264 158.108 C 123.008 152.492,122.664 144.925,122.499 141.291 C 121.974 129.742,121.789 102.985,122.208 99.249 C 123.822 84.864,127.952 72.306,134.976 60.428 C 143.695 45.682,156.186 34.355,170.571 28.152 C 171.149 27.903,172.125 27.475,172.741 27.202 C 173.689 26.781,176.411 25.866,180.330 24.651 C 182.156 24.084,187.277 23.061,191.291 22.461 C 194.641 21.960,207.420 21.964,210.811 22.468 C 220.529 23.911,228.865 25.994,235.285 28.585 C 236.111 28.918,237.057 29.294,237.387 29.421 C 237.718 29.547,239.069 30.172,240.390 30.810 C 242.519 31.838,244.006 32.638,247.333 34.544 C 250.422 36.314,256.476 41.150,259.727 44.444 C 262.937 47.698,269.069 55.483,269.069 56.306 C 269.069 56.420,269.320 56.873,269.627 57.311 C 274.197 63.838,279.875 79.410,281.688 90.390 C 281.838 91.299,282.105 92.920,282.281 93.994 C 284.139 105.324,284.543 114.270,284.508 143.393 C 284.483 164.332,284.325 170.454,283.815 170.140 C 283.696 170.066,282.907 168.882,282.062 167.510 C 280.337 164.708,276.810 160.206,276.001 159.773 C 275.447 159.477,275.781 158.915,266.573 175.655 C 264.678 179.099,262.713 182.729,260.952 186.036 C 260.336 187.192,258.280 191.044,256.383 194.595 C 254.485 198.146,251.883 203.078,250.600 205.556 C 249.317 208.033,247.493 211.547,246.545 213.363 C 241.656 222.740,236.336 233.277,236.336 233.585 C 236.336 234.029,242.520 234.075,242.793 233.634 C 242.896 233.466,244.297 233.333,245.964 233.333 C 247.754 233.333,248.949 233.213,248.949 233.033 C 248.949 232.860,249.880 232.733,251.141 232.733 C 252.347 232.733,253.462 232.605,253.619 232.450 C 253.776 232.294,254.627 232.134,255.511 232.094 C 256.507 232.049,257.176 231.872,257.270 231.627 C 257.372 231.362,258.005 231.231,259.191 231.231 C 260.171 231.231,260.961 231.097,260.961 230.931 C 260.961 230.747,262.412 230.631,264.715 230.631 C 266.968 230.631,268.468 230.513,268.468 230.336 C 268.468 230.174,268.840 229.952,269.294 229.842 C 269.748 229.732,270.479 229.392,270.917 229.085 C 271.356 228.779,272.065 228.529,272.494 228.529 C 272.923 228.529,273.273 228.393,273.273 228.228 C 273.273 228.063,273.611 227.928,274.024 227.928 C 274.491 227.928,274.775 227.758,274.775 227.477 C 274.775 227.230,274.954 227.027,275.173 227.027 C 275.622 227.027,276.877 225.790,276.877 225.347 C 276.877 225.188,277.156 224.859,277.496 224.616 C 277.837 224.373,278.314 223.758,278.557 223.249 C 278.800 222.740,279.490 222.064,280.091 221.747 C 280.691 221.431,281.420 221.042,281.711 220.884 C 282.438 220.489,283.087 218.686,282.959 217.417 C 282.752 215.381,282.902 209.442,283.196 207.958 C 283.535 206.254,283.679 204.404,283.791 200.300 C 283.846 198.277,283.922 197.796,284.052 198.646 C 284.180 199.491,284.400 199.876,284.795 199.951 C 285.558 200.096,285.407 196.160,284.617 195.286 C 284.180 194.804,284.137 194.174,284.282 190.384 C 284.472 185.430,284.675 184.509,284.706 188.463 C 284.744 193.348,285.198 192.541,285.395 187.237 C 285.500 184.429,285.754 179.835,285.961 177.027 C 286.618 168.091,286.474 116.350,285.771 109.159 C 285.465 106.021,285.106 102.305,284.974 100.901 C 284.714 98.134,284.185 94.715,283.906 93.994 C 283.811 93.746,283.604 92.530,283.447 91.291 C 282.938 87.261,282.825 86.641,282.552 86.351 C 282.404 86.194,282.280 85.721,282.278 85.300 C 282.275 84.879,282.082 83.926,281.847 83.183 L 281.422 81.832 281.401 82.940 C 281.390 83.550,281.517 84.132,281.682 84.234 C 281.847 84.336,281.982 85.012,281.982 85.736 C 281.982 86.459,282.117 87.135,282.282 87.237 C 282.447 87.339,282.577 88.124,282.571 88.982 L 282.559 90.541 282.120 89.530 C 281.879 88.974,281.682 88.003,281.682 87.371 C 281.682 86.739,281.547 86.138,281.381 86.036 C 281.216 85.934,281.081 85.496,281.081 85.064 C 281.081 84.270,280.943 83.705,280.062 80.891 C 279.797 80.043,279.580 79.071,279.580 78.731 C 279.580 78.391,279.444 78.030,279.279 77.928 C 279.114 77.826,278.979 77.411,278.979 77.005 C 278.979 76.600,278.860 76.033,278.715 75.747 C 278.570 75.460,278.213 74.482,277.922 73.574 C 277.631 72.665,277.277 71.794,277.135 71.637 C 276.993 71.480,276.877 71.049,276.877 70.678 C 276.877 70.308,276.742 69.922,276.577 69.820 C 276.091 69.519,276.222 68.767,276.727 68.960 C 276.974 69.056,277.177 69.381,277.177 69.684 C 277.177 69.987,277.312 70.318,277.477 70.420 C 277.643 70.522,277.778 70.938,277.778 71.343 C 277.778 71.749,277.896 72.315,278.041 72.602 C 278.739 73.981,279.279 75.451,279.279 75.968 C 279.279 76.283,279.414 76.625,279.580 76.727 C 279.745 76.829,279.880 77.369,279.880 77.928 C 279.880 78.487,280.015 79.027,280.180 79.129 C 280.345 79.231,280.480 79.696,280.480 80.161 C 280.480 80.627,280.683 81.176,280.931 81.381 C 281.307 81.693,281.381 81.652,281.381 81.136 C 281.381 80.795,281.246 80.432,281.081 80.330 C 280.916 80.228,280.781 79.755,280.781 79.279 C 280.781 78.803,280.661 78.340,280.514 78.249 C 280.367 78.158,280.184 77.643,280.106 77.105 C 280.029 76.567,279.542 74.977,279.024 73.574 C 278.505 72.170,278.080 70.785,278.080 70.495 C 278.079 70.206,277.958 69.970,277.810 69.970 C 277.663 69.970,277.454 69.617,277.346 69.186 C 276.526 65.919,268.382 51.101,266.723 49.857 C 266.607 49.770,266.115 49.159,265.628 48.498 C 262.815 44.683,257.232 39.377,252.440 35.965 C 249.942 34.187,242.615 29.730,242.189 29.730 C 242.051 29.730,238.616 28.189,237.116 27.454 C 236.636 27.219,236.060 27.027,235.836 27.027 C 235.611 27.027,235.193 26.901,234.906 26.746 C 233.580 26.032,232.294 25.526,231.803 25.526 C 231.508 25.526,231.183 25.390,231.081 25.225 C 230.979 25.060,230.506 24.925,230.030 24.925 C 229.554 24.925,229.090 24.805,228.999 24.658 C 228.909 24.511,228.394 24.319,227.856 24.232 C 227.317 24.144,226.066 23.848,225.075 23.573 C 222.715 22.918,219.832 22.303,216.667 21.781 C 215.723 21.625,215.578 21.654,215.989 21.916 C 216.277 22.100,217.193 22.331,218.025 22.429 C 218.857 22.528,219.609 22.724,219.696 22.866 C 219.784 23.007,220.455 23.123,221.189 23.123 C 221.922 23.123,222.523 23.258,222.523 23.423 C 222.523 23.589,223.097 23.728,223.799 23.733 C 224.501 23.739,225.337 23.941,225.658 24.184 C 225.979 24.426,226.613 24.625,227.067 24.625 C 227.521 24.625,227.976 24.760,228.078 24.925 C 228.180 25.090,228.721 25.225,229.279 25.225 C 229.838 25.225,230.378 25.360,230.480 25.526 C 230.583 25.691,230.917 25.826,231.225 25.826 C 231.532 25.826,232.233 26.051,232.783 26.327 C 234.640 27.257,234.825 27.327,235.431 27.327 C 235.764 27.327,236.036 27.462,236.036 27.628 C 236.036 27.793,236.340 27.932,236.712 27.937 C 237.083 27.943,237.650 28.145,237.970 28.388 C 238.291 28.630,238.798 28.829,239.096 28.829 C 239.395 28.829,239.640 28.964,239.640 29.129 C 239.640 29.294,239.809 29.427,240.015 29.425 C 240.483 29.419,243.657 31.000,243.794 31.306 C 243.849 31.430,244.153 31.532,244.469 31.532 C 244.786 31.532,245.045 31.667,245.045 31.832 C 245.045 31.997,245.248 32.132,245.495 32.132 C 245.743 32.132,245.946 32.267,245.946 32.432 C 245.946 32.598,246.220 32.733,246.556 32.733 C 246.891 32.733,247.244 32.935,247.339 33.183 C 247.434 33.431,247.768 33.634,248.080 33.634 C 248.393 33.634,248.649 33.769,248.649 33.934 C 248.649 34.099,248.851 34.234,249.099 34.234 C 249.347 34.234,249.550 34.369,249.550 34.535 C 249.550 34.700,249.820 34.835,250.150 34.835 C 250.484 34.835,250.751 35.035,250.751 35.285 C 250.751 35.533,250.953 35.736,251.201 35.736 C 251.449 35.736,251.652 35.871,251.652 36.036 C 251.652 36.201,251.922 36.336,252.252 36.336 C 252.884 36.336,253.061 36.773,252.556 37.085 C 252.393 37.186,251.888 36.923,251.433 36.502 C 250.979 36.081,250.436 35.736,250.228 35.736 C 250.020 35.736,249.850 35.601,249.850 35.435 C 249.850 35.270,249.647 35.135,249.399 35.135 C 249.152 35.135,248.949 35.016,248.949 34.870 C 248.949 34.724,248.712 34.523,248.423 34.423 C 248.134 34.323,247.492 33.969,246.997 33.637 C 246.502 33.304,245.691 32.825,245.195 32.572 C 244.700 32.320,243.889 31.857,243.393 31.544 C 242.898 31.231,242.256 30.965,241.967 30.953 C 241.678 30.941,241.441 30.796,241.441 30.631 C 241.441 30.465,241.188 30.330,240.878 30.330 C 240.568 30.330,240.164 30.150,239.981 29.929 C 239.798 29.709,239.072 29.347,238.368 29.126 C 237.663 28.905,236.959 28.613,236.802 28.476 C 236.645 28.340,236.214 28.228,235.844 28.228 C 235.473 28.228,235.099 28.113,235.013 27.972 C 234.841 27.695,233.078 27.027,230.931 26.426 C 230.188 26.218,229.174 25.882,228.679 25.679 C 228.183 25.476,227.102 25.147,226.276 24.948 C 225.450 24.749,224.302 24.467,223.724 24.320 C 222.191 23.930,221.062 23.709,219.369 23.469 C 218.544 23.351,217.689 23.144,217.469 23.007 C 217.040 22.740,214.740 22.385,210.210 21.888 C 205.729 21.397,196.047 21.328,192.643 21.763 M157.054 34.910 C 156.643 35.282,155.766 35.987,155.105 36.477 C 154.444 36.968,153.642 37.610,153.322 37.904 C 153.002 38.198,152.630 38.438,152.496 38.438 C 152.362 38.438,152.252 38.641,152.252 38.889 C 152.252 39.137,152.038 39.339,151.777 39.339 C 151.288 39.339,143.243 47.295,143.243 47.779 C 143.243 47.927,142.724 48.568,142.088 49.203 C 141.453 49.838,140.481 51.021,139.929 51.831 C 139.376 52.641,138.815 53.348,138.681 53.403 C 138.548 53.458,138.438 53.695,138.438 53.929 C 138.438 54.163,138.335 54.354,138.208 54.354 C 138.082 54.354,137.534 55.098,136.990 56.006 C 136.186 57.350,135.435 58.098,135.435 57.554 C 135.435 57.230,136.398 55.602,136.923 55.039 C 137.261 54.676,137.538 54.239,137.538 54.067 C 137.538 53.895,137.673 53.754,137.838 53.754 C 138.003 53.754,138.138 53.613,138.138 53.441 C 138.138 53.146,138.373 52.807,139.264 51.813 C 139.471 51.583,139.640 51.306,139.640 51.198 C 139.640 51.089,140.113 50.542,140.691 49.980 C 141.269 49.419,141.742 48.840,141.742 48.694 C 141.742 48.418,146.355 43.434,147.870 42.075 C 148.350 41.644,149.445 40.613,150.304 39.783 C 151.162 38.954,152.356 37.940,152.957 37.531 C 153.558 37.122,154.051 36.685,154.052 36.562 C 154.053 36.438,154.188 36.336,154.352 36.336 C 154.639 36.336,155.888 35.372,156.575 34.621 C 156.757 34.421,157.108 34.252,157.354 34.246 C 157.657 34.238,157.559 34.453,157.054 34.910 M253.942 37.613 C 254.378 37.984,254.910 38.457,255.124 38.664 C 255.338 38.870,255.590 39.039,255.684 39.039 C 256.066 39.039,257.016 40.230,256.760 40.388 C 256.490 40.555,256.168 40.331,254.280 38.664 C 253.766 38.209,253.234 37.838,253.099 37.838 C 252.964 37.838,252.853 37.635,252.853 37.387 C 252.853 36.785,253.007 36.817,253.942 37.613 M257.958 41.141 C 258.196 41.471,258.564 41.742,258.775 41.742 C 258.986 41.742,259.159 41.851,259.159 41.985 C 259.159 42.119,259.435 42.525,259.771 42.886 C 260.108 43.248,260.303 43.544,260.204 43.544 C 259.891 43.544,257.387 41.350,257.228 40.937 C 256.996 40.332,257.470 40.465,257.958 41.141 M263.077 46.232 C 263.895 47.050,264.565 47.842,264.565 47.992 C 264.565 48.142,265.173 48.918,265.916 49.716 C 266.659 50.514,267.270 51.310,267.272 51.485 C 267.275 51.659,267.613 52.120,268.023 52.509 C 268.433 52.898,268.769 53.405,268.769 53.635 C 268.769 53.866,268.904 54.054,269.069 54.054 C 269.234 54.054,269.369 54.257,269.369 54.505 C 269.369 54.752,269.476 54.955,269.606 54.955 C 269.737 54.955,270.240 55.714,270.726 56.642 C 271.212 57.570,271.781 58.396,271.991 58.476 C 272.201 58.557,272.372 58.879,272.372 59.191 C 272.372 59.504,272.508 59.760,272.673 59.760 C 272.838 59.760,272.973 60.098,272.973 60.511 C 272.973 60.923,273.108 61.261,273.273 61.261 C 273.438 61.261,273.574 61.524,273.574 61.844 C 273.574 62.165,273.709 62.511,273.874 62.613 C 274.039 62.715,274.174 62.993,274.174 63.231 C 274.174 63.469,274.039 63.664,273.874 63.664 C 273.709 63.664,273.574 63.458,273.574 63.207 C 273.574 62.956,273.266 62.247,272.891 61.631 C 272.516 61.015,272.012 60.105,271.771 59.610 C 271.530 59.114,271.027 58.291,270.652 57.779 C 270.277 57.268,269.970 56.741,269.970 56.607 C 269.970 56.473,269.632 55.920,269.219 55.379 C 268.806 54.837,268.468 54.250,268.468 54.074 C 268.468 53.898,268.333 53.754,268.168 53.754 C 268.003 53.754,267.868 53.615,267.868 53.445 C 267.868 53.011,264.275 48.348,263.940 48.348 C 263.788 48.348,263.664 48.145,263.664 47.896 C 263.664 47.647,263.325 47.149,262.911 46.789 C 262.116 46.098,261.128 44.745,261.419 44.745 C 261.513 44.745,262.259 45.414,263.077 46.232 M176.229 58.035 C 174.379 59.599,173.851 61.881,173.611 69.365 C 173.017 87.870,174.185 93.728,178.389 93.325 C 182.094 92.968,183.153 89.090,183.173 75.803 C 183.189 64.608,182.587 60.462,180.644 58.402 C 179.408 57.092,177.530 56.935,176.229 58.035 M222.071 58.389 C 221.536 58.956,221.028 59.733,220.942 60.115 C 219.869 64.890,219.803 65.754,219.784 75.225 C 219.756 89.279,220.581 92.876,223.923 93.284 C 226.205 93.563,227.611 92.253,228.702 88.835 C 229.807 85.373,229.611 64.147,228.445 60.961 C 227.072 57.210,224.255 56.073,222.071 58.389 M180.268 58.634 C 183.566 61.756,183.772 88.306,180.526 91.939 C 178.664 94.023,175.669 92.971,174.797 89.926 C 173.718 86.156,173.531 65.465,174.545 61.998 C 175.769 57.814,178.010 56.497,180.268 58.634 M226.296 58.190 C 228.534 60.064,228.829 62.066,228.829 75.415 C 228.829 87.100,228.743 88.072,227.462 90.879 C 226.282 93.466,222.940 93.587,221.676 91.089 C 219.858 87.496,219.513 66.486,221.181 60.987 C 222.071 58.052,224.527 56.710,226.296 58.190 M135.435 58.137 C 135.435 58.235,135.199 58.675,134.910 59.114 C 134.621 59.553,134.223 60.182,134.025 60.512 C 133.560 61.289,130.042 68.436,129.739 69.219 C 129.612 69.550,129.168 70.563,128.754 71.471 C 128.339 72.380,127.835 73.596,127.633 74.174 C 127.432 74.752,127.148 75.495,127.003 75.826 C 126.252 77.534,125.225 80.797,125.225 81.475 C 125.225 81.900,125.090 82.330,124.925 82.432 C 124.760 82.535,124.625 82.988,124.625 83.441 C 124.625 83.894,124.507 84.393,124.364 84.550 C 124.115 84.822,123.430 87.760,122.792 91.291 C 122.628 92.200,122.370 93.551,122.218 94.294 C 122.066 95.038,121.787 97.538,121.598 99.850 C 121.170 105.066,120.911 105.574,121.139 100.751 C 121.377 95.701,121.627 93.290,121.947 92.958 C 122.098 92.801,122.222 91.821,122.222 90.781 C 122.222 89.740,122.343 88.889,122.491 88.889 C 122.639 88.889,122.829 88.382,122.914 87.763 C 123.101 86.391,123.699 84.122,124.059 83.412 C 124.205 83.126,124.324 82.482,124.324 81.982 C 124.324 81.482,124.437 80.838,124.574 80.551 C 124.711 80.265,125.049 79.580,125.325 79.030 C 125.600 78.480,125.826 77.703,125.826 77.303 C 125.826 76.903,125.961 76.577,126.126 76.577 C 126.291 76.577,126.426 76.237,126.426 75.822 C 126.426 75.407,126.546 74.832,126.692 74.545 C 126.838 74.259,127.120 73.619,127.320 73.123 C 127.520 72.628,127.873 71.840,128.106 71.372 C 128.338 70.904,128.529 70.330,128.529 70.096 C 128.529 69.861,128.664 69.670,128.829 69.670 C 128.994 69.670,129.129 69.332,129.129 68.919 C 129.129 68.506,129.264 68.168,129.429 68.168 C 129.595 68.168,129.730 67.906,129.730 67.585 C 129.730 67.265,129.856 66.924,130.011 66.829 C 130.380 66.600,131.231 64.885,131.231 64.368 C 131.231 64.146,131.366 63.964,131.532 63.964 C 131.697 63.964,131.832 63.778,131.832 63.550 C 131.832 63.323,132.035 62.968,132.282 62.763 C 132.530 62.557,132.733 62.135,132.733 61.825 C 132.733 61.515,132.868 61.261,133.033 61.261 C 133.198 61.261,133.333 60.991,133.333 60.661 C 133.333 60.330,133.468 60.060,133.634 60.060 C 133.799 60.060,133.934 59.872,133.934 59.642 C 133.934 59.412,134.137 59.146,134.384 59.051 C 134.632 58.955,134.835 58.671,134.835 58.418 C 134.835 58.165,134.970 57.958,135.135 57.958 C 135.300 57.958,135.435 58.038,135.435 58.137 M176.598 59.650 C 176.256 60.085,175.980 60.592,175.985 60.776 C 175.990 60.960,176.144 60.841,176.327 60.511 C 176.511 60.180,176.865 59.673,177.116 59.384 C 177.366 59.095,177.492 58.859,177.396 58.859 C 177.299 58.859,176.941 59.215,176.598 59.650 M175.563 61.723 C 175.460 61.992,175.389 62.504,175.406 62.862 C 175.426 63.274,175.528 63.128,175.683 62.464 C 175.946 61.348,175.874 60.911,175.563 61.723 M227.397 63.363 C 227.397 63.941,227.459 64.178,227.534 63.889 C 227.610 63.600,227.610 63.127,227.534 62.838 C 227.459 62.549,227.397 62.785,227.397 63.363 M181.209 65.209 C 181.221 66.307,181.331 67.050,181.452 66.861 C 181.722 66.439,181.698 64.978,181.405 63.964 C 181.265 63.482,181.195 63.928,181.209 65.209 M221.691 64.264 C 221.691 64.842,221.753 65.079,221.829 64.790 C 221.904 64.501,221.904 64.028,221.829 63.739 C 221.753 63.450,221.691 63.686,221.691 64.264 M275.021 64.813 C 275.074 65.172,275.243 65.465,275.396 65.465 C 275.550 65.465,275.676 65.792,275.676 66.191 C 275.676 66.590,275.824 66.966,276.005 67.027 C 276.187 67.087,276.288 67.470,276.229 67.878 C 276.137 68.522,276.033 68.423,275.428 67.117 C 275.045 66.291,274.606 65.381,274.453 65.094 C 274.063 64.364,274.106 63.891,274.550 64.038 C 274.756 64.106,274.968 64.455,275.021 64.813 M227.697 66.066 C 227.697 66.644,227.759 66.881,227.835 66.592 C 227.910 66.303,227.910 65.830,227.835 65.541 C 227.759 65.252,227.697 65.488,227.697 66.066 M226.738 68.748 C 226.567 69.068,226.146 69.418,225.804 69.527 C 225.461 69.635,225.246 69.791,225.327 69.872 C 225.575 70.120,226.694 69.390,227.031 68.762 C 227.205 68.435,227.281 68.168,227.198 68.168 C 227.116 68.168,226.908 68.429,226.738 68.748 M283.426 93.492 C 283.642 94.841,283.884 96.689,283.965 97.598 C 284.045 98.506,284.236 99.520,284.389 99.850 C 284.542 100.180,284.722 101.599,284.790 103.003 C 284.858 104.407,285.073 106.839,285.269 108.408 C 285.469 110.013,285.526 111.853,285.399 112.613 C 285.178 113.936,285.168 113.914,284.945 111.562 C 284.819 110.240,284.569 107.875,284.388 106.306 C 284.207 104.737,283.934 102.102,283.782 100.450 C 283.630 98.799,283.252 96.029,282.942 94.294 C 282.411 91.328,282.382 90.393,282.838 90.844 C 282.945 90.950,283.210 92.142,283.426 93.492 M120.943 109.524 C 120.883 110.479,120.834 109.775,120.833 107.958 C 120.832 106.141,120.881 105.359,120.942 106.220 C 121.002 107.081,121.003 108.568,120.943 109.524 M286.086 140.541 C 286.209 160.818,286.116 167.597,285.719 167.200 C 285.656 167.138,285.567 155.134,285.520 140.525 C 285.471 125.122,285.543 114.721,285.691 115.766 C 285.831 116.757,286.009 127.905,286.086 140.541 M121.601 127.570 C 121.614 131.765,121.518 133.905,121.321 133.784 C 121.134 133.668,121.029 131.026,121.042 126.784 C 121.055 122.699,121.167 120.211,121.321 120.571 C 121.463 120.901,121.589 124.051,121.601 127.570 M285.342 180.169 C 285.286 182.415,285.146 183.744,284.991 183.494 C 284.657 182.952,284.610 178.110,284.904 174.474 L 285.135 171.622 285.285 174.024 C 285.368 175.345,285.394 178.110,285.342 180.169 M283.459 211.976 C 283.172 212.932,283.168 213.392,283.440 213.988 C 283.999 215.216,284.536 214.705,284.522 212.961 C 284.505 210.853,283.949 210.339,283.459 211.976 M284.384 213.664 C 284.384 214.077,284.249 214.414,284.084 214.414 C 283.919 214.414,283.784 214.077,283.784 213.664 C 283.784 213.251,283.919 212.913,284.084 212.913 C 284.249 212.913,284.384 213.251,284.384 213.664 M170.162 232.282 C 170.032 232.620,170.210 232.733,170.871 232.733 C 171.532 232.733,171.710 232.620,171.580 232.282 C 171.485 232.035,171.166 231.832,170.871 231.832 C 170.576 231.832,170.257 232.035,170.162 232.282 " stroke="none" fill="#5b2c14" fill-rule="evenodd"></path></g></svg>